<svg width="23" height="18" viewBox="0 0 23 18" fill="none" xmlns="http://www.w3.org/2000/svg">
<path d="M19.8539 4.48291C19.8679 4.67493 19.8679 4.86585 19.8679 5.05676C19.8679 10.8995 15.4913 17.632 7.4929 17.632C5.0287 17.632 2.73943 16.9068 0.812988 15.6472C1.16286 15.6877 1.49977 15.702 1.86368 15.702C3.89702 15.702 5.76839 15.0042 7.26397 13.8137C5.35157 13.7731 3.74908 12.5003 3.1962 10.7492C3.46508 10.7897 3.73504 10.8172 4.01796 10.8172C4.40779 10.8172 4.79977 10.7623 5.16368 10.6669C3.16921 10.2565 1.67578 8.4779 1.67578 6.32954V6.27468C2.25566 6.60275 2.9284 6.80793 3.6411 6.83536C2.46947 6.04316 1.7017 4.6881 1.7017 3.15528C1.7017 2.33455 1.91659 1.58186 2.29345 0.92572C4.43478 3.60623 7.6538 5.3585 11.2626 5.55051C11.1957 5.22135 11.1546 4.88011 11.1546 4.53778C11.1546 2.10194 13.094 0.118164 15.5043 0.118164C16.7569 0.118164 17.8875 0.651414 18.6822 1.51383C19.6649 1.32182 20.6065 0.952053 21.4423 0.446234C21.1194 1.47214 20.4316 2.33455 19.5299 2.88207C20.4057 2.78551 21.2544 2.53973 22.0341 2.1974C21.4423 3.07298 20.7026 3.85311 19.8539 4.48291Z" fill="white"/>
</svg>
