<svg width="151" height="151" viewBox="0 0 151 151" fill="none" xmlns="http://www.w3.org/2000/svg">
<path d="M75.5 0C33.7923 0 0 33.7923 0 75.5C0 117.208 33.7923 151 75.5 151C117.208 151 151 117.208 151 75.5C151 33.7923 117.208 0 75.5 0ZM75.5 29.2258C90.2956 29.2258 102.29 41.2206 102.29 56.0161C102.29 70.8117 90.2956 82.8065 75.5 82.8065C60.7044 82.8065 48.7097 70.8117 48.7097 56.0161C48.7097 41.2206 60.7044 29.2258 75.5 29.2258ZM75.5 133.952C57.6296 133.952 41.6163 125.854 30.9002 113.189C36.6236 102.412 47.8268 94.9839 60.8871 94.9839C61.6177 94.9839 62.3484 95.1057 63.0486 95.3188C67.0063 96.5974 71.1466 97.4194 75.5 97.4194C79.8534 97.4194 84.0242 96.5974 87.9514 95.3188C88.6516 95.1057 89.3823 94.9839 90.1129 94.9839C103.173 94.9839 114.376 102.412 120.1 113.189C109.384 125.854 93.3704 133.952 75.5 133.952Z" fill="#94BDF7"/>
</svg>
