<svg width="20" height="20" viewBox="0 0 20 20" fill="none" xmlns="http://www.w3.org/2000/svg">
<path fill-rule="evenodd" clip-rule="evenodd" d="M14.8772 0.000244141H5.15861C2.48624 0.000244141 0.299316 2.22138 0.299316 4.93774V14.8127C0.299316 17.5281 2.48624 19.7502 5.15861 19.7502H14.8772C17.5496 19.7502 19.7365 17.5281 19.7365 14.8127V4.93774C19.7365 2.22138 17.5496 0.000244141 14.8772 0.000244141ZM10.0188 13.9897C7.78205 13.9897 5.96929 12.147 5.96929 9.87524C5.96929 7.60251 7.78205 5.76058 10.0188 5.76058C12.2545 5.76058 14.0683 7.60251 14.0683 9.87524C14.0683 12.147 12.2545 13.9897 10.0188 13.9897ZM14.0676 4.5262C14.0676 5.20782 14.6108 5.76058 15.2824 5.76058C15.9539 5.76058 16.4972 5.20782 16.4972 4.5262C16.4972 3.84458 15.9539 3.29183 15.2824 3.29183C14.6108 3.29183 14.0676 3.84458 14.0676 4.5262Z" fill="white"/>
</svg>
