<?xml version="1.0" encoding="utf-8"?>
<!-- Generator: Adobe Illustrator 27.5.0, SVG Export Plug-In . SVG Version: 6.00 Build 0)  -->
<svg version="1.1" xmlns="http://www.w3.org/2000/svg" xmlns:xlink="http://www.w3.org/1999/xlink" x="0px" y="0px"
	 viewBox="0 0 1122 1122" style="enable-background:new 0 0 1122 1122;" xml:space="preserve">
<g id="BG">
	<rect style="fill:#FBE7E6;" width="1122" height="1122"/>
</g>
<g id="Object">
	<g>
		<path style="fill:#945F41;" d="M312.309,590.425c0,0,17.254-30.676,85.312-29.892c68.058,0.784,237.827-5.201,246.88-29.519
			c9.052-24.318,53.563-161.799,76.847-172.848c23.284-11.049,47.984-28.138,96.146,19.375c0,0,2.261,11.84,25.921,8.737
			c23.66-3.103,66.173-3.109,66.173-3.109s13.569,35.201-43.462,51.818c-57.032,16.617-72.02,23.294-88.621,103.715
			C760.905,619.124,746.1,665.614,746.1,665.614s2.914,61.585,16.013,86.853l13.525,16.288c0,0,7.163,7.628-1.133,11.999
			c-8.296,4.372-25.545-0.791-29.785-18.511s-34.49-82.003-33.827-103.935c0,0-6.124-21.614-13.856-5.322
			c-7.732,16.292-14.523,52.449,1.969,77.558c0,0,14.984,29.161,20.356,34.882c5.372,5.721,10.933,15.415,2.449,15.813
			c-8.484,0.399-21.776,6.996-40.717-33.925c-18.942-40.922-32.605-78.109-65.125-82.555c-32.52-4.445-166.85,31.732-187.587,24.742
			c0,0-4.996,2.226-5.753,22.172c-0.757,19.946-3.116,41.958,7.44,49.426c10.557,7.468,9.142,13.508,4.24,17.72
			c-4.902,4.212-30.354,5.408-30.255-28.444c0.099-33.852,0.291-65.718-14.979-65c-15.271,0.718-35.632,1.674-34.222,31.473
			c1.41,29.799,0.277,41.799,7.346,47.44c0,0,9.142,13.508-4.244,18.119c-13.386,4.611-29.691-16.524-31.848-98.055
			c0,0-15.548-41.081-13.189-63.093c0,0-68.063,35.054-96.898-35.268c0,0-5.936-17.64-4.898-31.626
			C211.122,554.363,224.024,647.336,312.309,590.425z"/>
		<path style="fill:#58392B;" d="M790.114,355.931c0,0-90.309,32.117-32.715,45.34C814.992,414.493,844.123,383.259,790.114,355.931
			z"/>
		<path style="fill:#58392B;" d="M746.189,340.076c0,0-26.064-12.713-29.127,49.153c-3.064,61.866-17.143,144.16,11.534,148.785
			c28.677,4.626,33.714-15.521,31.646-59.227C758.173,435.082,758.614,349.447,746.189,340.076z"/>
		<path style="fill:#58392B;" d="M888.709,391.12c0,0,9.334-18.358,21.682-8.983C910.391,382.137,907.181,422.108,888.709,391.12z"
			/>
		
			<ellipse transform="matrix(0.9988 -0.0482 0.0482 0.9988 -17.4108 38.7684)" style="fill:#151214;" cx="795.531" cy="380.565" rx="16.137" ry="18.894"/>
	</g>
</g>
</svg>
