<svg width="156" height="108" viewBox="0 0 156 108" fill="none" xmlns="http://www.w3.org/2000/svg">
<g filter="url(#filter0_d_343_1312)">
<rect x="56" y="4" width="44" height="44" rx="5" fill="#363636"/>
</g>
<g filter="url(#filter1_d_343_1312)">
<rect x="56" y="52" width="44" height="44" rx="5" fill="#363636"/>
</g>
<g filter="url(#filter2_d_343_1312)">
<rect x="8" y="52" width="44" height="44" rx="5" fill="#363636"/>
</g>
<g filter="url(#filter3_d_343_1312)">
<rect x="104" y="52" width="44" height="44" rx="5" fill="#363636"/>
</g>
<path d="M71.6932 33L67.4034 18.4545H71.8068L73.7955 27.4034H73.9091L76.267 18.4545H79.733L82.0909 27.4318H82.2045L84.1932 18.4545H88.5966L84.3068 33H80.5284L78.0568 24.875H77.9432L75.4716 33H71.6932Z" fill="white"/>
<path d="M80.1183 71C80.0804 70.5265 79.9028 70.1572 79.5856 69.892C79.2731 69.6269 78.7972 69.4943 78.158 69.4943C77.7508 69.4943 77.417 69.544 77.1566 69.6435C76.9009 69.7382 76.7115 69.8684 76.5884 70.0341C76.4653 70.1998 76.4014 70.3892 76.3967 70.6023C76.3872 70.7775 76.418 70.9361 76.489 71.0781C76.5647 71.2154 76.6831 71.3409 76.8441 71.4545C77.0051 71.5634 77.2111 71.6629 77.462 71.7528C77.713 71.8428 78.0112 71.9233 78.3569 71.9943L79.5501 72.25C80.355 72.4205 81.0439 72.6454 81.6168 72.9247C82.1897 73.2041 82.6585 73.5331 83.0231 73.9119C83.3877 74.286 83.6552 74.7074 83.8256 75.1761C84.0008 75.6449 84.0908 76.1562 84.0955 76.7102C84.0908 77.6667 83.8517 78.4763 83.3782 79.1392C82.9047 79.8021 82.2276 80.3063 81.3469 80.652C80.471 80.9976 79.4175 81.1705 78.1864 81.1705C76.9222 81.1705 75.819 80.9834 74.8768 80.6094C73.9393 80.2353 73.2101 79.66 72.6893 78.8835C72.1732 78.1023 71.9128 77.1032 71.908 75.8864H75.658C75.6817 76.3314 75.793 76.7055 75.9918 77.0085C76.1907 77.3116 76.4701 77.5412 76.8299 77.6974C77.1945 77.8537 77.6277 77.9318 78.1296 77.9318C78.551 77.9318 78.9038 77.8797 79.1879 77.7756C79.4719 77.6714 79.6874 77.527 79.8342 77.3423C79.9809 77.1577 80.0567 76.947 80.0614 76.7102C80.0567 76.4877 79.9833 76.2936 79.8413 76.1278C79.704 75.9574 79.4767 75.8059 79.1594 75.6733C78.8422 75.536 78.4137 75.4081 77.8739 75.2898L76.4251 74.9773C75.1372 74.6979 74.1216 74.2315 73.3782 73.5781C72.6396 72.92 72.2726 72.0227 72.2773 70.8864C72.2726 69.9631 72.5188 69.1558 73.016 68.4645C73.5179 67.7685 74.2115 67.2263 75.0969 66.8381C75.9871 66.4498 77.0075 66.2557 78.158 66.2557C79.3323 66.2557 80.3479 66.4522 81.2049 66.8452C82.0619 67.2382 82.7224 67.7921 83.1864 68.5071C83.6552 69.2173 83.8919 70.0483 83.8967 71H80.1183Z" fill="white"/>
<path d="M26.7569 81H22.4956L27.2967 66.4545H32.6944L37.4956 81H33.2342L30.0524 70.4602H29.9387L26.7569 81ZM25.9615 75.2614H33.9728V78.2159H25.9615V75.2614Z" fill="white"/>
<path d="M125.2 81H119.604V66.4545H125.143C126.64 66.4545 127.932 66.7457 129.021 67.3281C130.115 67.9058 130.958 68.7391 131.55 69.8281C132.146 70.9124 132.444 72.2121 132.444 73.7273C132.444 75.2424 132.148 76.5445 131.557 77.6335C130.965 78.7178 130.127 79.5511 129.042 80.1335C127.958 80.7112 126.677 81 125.2 81ZM123.552 77.6477H125.058C125.778 77.6477 126.391 77.5317 126.898 77.2997C127.409 77.0677 127.797 76.6676 128.062 76.0994C128.332 75.5312 128.467 74.7405 128.467 73.7273C128.467 72.714 128.33 71.9233 128.055 71.3551C127.785 70.7869 127.388 70.3868 126.862 70.1548C126.341 69.9228 125.702 69.8068 124.944 69.8068H123.552V77.6477Z" fill="white"/>
<defs>
<filter id="filter0_d_343_1312" x="48" y="0" width="60" height="60" filterUnits="userSpaceOnUse" color-interpolation-filters="sRGB">
<feFlood flood-opacity="0" result="BackgroundImageFix"/>
<feColorMatrix in="SourceAlpha" type="matrix" values="0 0 0 0 0 0 0 0 0 0 0 0 0 0 0 0 0 0 127 0" result="hardAlpha"/>
<feOffset dy="4"/>
<feGaussianBlur stdDeviation="4"/>
<feComposite in2="hardAlpha" operator="out"/>
<feColorMatrix type="matrix" values="0 0 0 0 0 0 0 0 0 0 0 0 0 0 0 0 0 0 0.25 0"/>
<feBlend mode="normal" in2="BackgroundImageFix" result="effect1_dropShadow_343_1312"/>
<feBlend mode="normal" in="SourceGraphic" in2="effect1_dropShadow_343_1312" result="shape"/>
</filter>
<filter id="filter1_d_343_1312" x="48" y="48" width="60" height="60" filterUnits="userSpaceOnUse" color-interpolation-filters="sRGB">
<feFlood flood-opacity="0" result="BackgroundImageFix"/>
<feColorMatrix in="SourceAlpha" type="matrix" values="0 0 0 0 0 0 0 0 0 0 0 0 0 0 0 0 0 0 127 0" result="hardAlpha"/>
<feOffset dy="4"/>
<feGaussianBlur stdDeviation="4"/>
<feComposite in2="hardAlpha" operator="out"/>
<feColorMatrix type="matrix" values="0 0 0 0 0 0 0 0 0 0 0 0 0 0 0 0 0 0 0.25 0"/>
<feBlend mode="normal" in2="BackgroundImageFix" result="effect1_dropShadow_343_1312"/>
<feBlend mode="normal" in="SourceGraphic" in2="effect1_dropShadow_343_1312" result="shape"/>
</filter>
<filter id="filter2_d_343_1312" x="0" y="48" width="60" height="60" filterUnits="userSpaceOnUse" color-interpolation-filters="sRGB">
<feFlood flood-opacity="0" result="BackgroundImageFix"/>
<feColorMatrix in="SourceAlpha" type="matrix" values="0 0 0 0 0 0 0 0 0 0 0 0 0 0 0 0 0 0 127 0" result="hardAlpha"/>
<feOffset dy="4"/>
<feGaussianBlur stdDeviation="4"/>
<feComposite in2="hardAlpha" operator="out"/>
<feColorMatrix type="matrix" values="0 0 0 0 0 0 0 0 0 0 0 0 0 0 0 0 0 0 0.25 0"/>
<feBlend mode="normal" in2="BackgroundImageFix" result="effect1_dropShadow_343_1312"/>
<feBlend mode="normal" in="SourceGraphic" in2="effect1_dropShadow_343_1312" result="shape"/>
</filter>
<filter id="filter3_d_343_1312" x="96" y="48" width="60" height="60" filterUnits="userSpaceOnUse" color-interpolation-filters="sRGB">
<feFlood flood-opacity="0" result="BackgroundImageFix"/>
<feColorMatrix in="SourceAlpha" type="matrix" values="0 0 0 0 0 0 0 0 0 0 0 0 0 0 0 0 0 0 127 0" result="hardAlpha"/>
<feOffset dy="4"/>
<feGaussianBlur stdDeviation="4"/>
<feComposite in2="hardAlpha" operator="out"/>
<feColorMatrix type="matrix" values="0 0 0 0 0 0 0 0 0 0 0 0 0 0 0 0 0 0 0.25 0"/>
<feBlend mode="normal" in2="BackgroundImageFix" result="effect1_dropShadow_343_1312"/>
<feBlend mode="normal" in="SourceGraphic" in2="effect1_dropShadow_343_1312" result="shape"/>
</filter>
</defs>
</svg>
