<?xml version="1.0" encoding="UTF-8"?>
<!DOCTYPE svg PUBLIC "-//W3C//DTD SVG 1.1//EN" "http://www.w3.org/Graphics/SVG/1.1/DTD/svg11.dtd">
<svg xmlns="http://www.w3.org/2000/svg" version="1.1" width="24px" height="24px" style="shape-rendering:geometricPrecision; text-rendering:geometricPrecision; image-rendering:optimizeQuality; fill-rule:evenodd; clip-rule:evenodd" xmlns:xlink="http://www.w3.org/1999/xlink">
<g><path style="opacity:0.962" fill="#fefffe" d="M 3.5,0.5 C 9.16667,0.5 14.8333,0.5 20.5,0.5C 20.5,7.83333 20.5,15.1667 20.5,22.5C 14.7945,22.8288 9.12779,22.4954 3.5,21.5C 2.16978,14.4701 2.16978,7.47008 3.5,0.5 Z M 5.5,2.5 C 9.83333,2.5 14.1667,2.5 18.5,2.5C 18.5,6.83333 18.5,11.1667 18.5,15.5C 13.8333,15.5 9.16667,15.5 4.5,15.5C 4.23071,11.0685 4.56404,6.7352 5.5,2.5 Z M 5.5,17.5 C 9.83333,17.5 14.1667,17.5 18.5,17.5C 18.5,18.5 18.5,19.5 18.5,20.5C 14.1539,20.6657 9.82056,20.499 5.5,20C 4.40191,19.2303 4.40191,18.397 5.5,17.5 Z"/></g>
<g><path style="opacity:0.948" fill="#fefffe" d="M 6.5,5.5 C 9.24688,5.18665 11.9135,5.51998 14.5,6.5C 13.1667,6.83333 11.8333,7.16667 10.5,7.5C 8.66723,7.41456 7.3339,6.7479 6.5,5.5 Z"/></g>
<g><path style="opacity:0.958" fill="#fefffe" d="M 6.5,9.5 C 9.89838,9.17964 13.2317,9.51298 16.5,10.5C 14.8333,10.8333 13.1667,11.1667 11.5,11.5C 9.3603,11.4439 7.69363,10.7773 6.5,9.5 Z"/></g>
</svg>
