<?xml version="1.0" encoding="UTF-8"?>
<!DOCTYPE svg PUBLIC "-//W3C//DTD SVG 1.1//EN" "http://www.w3.org/Graphics/SVG/1.1/DTD/svg11.dtd">
<svg xmlns="http://www.w3.org/2000/svg" version="1.1" width="40px" height="40px" style="shape-rendering:geometricPrecision; text-rendering:geometricPrecision; image-rendering:optimizeQuality; fill-rule:evenodd; clip-rule:evenodd" xmlns:xlink="http://www.w3.org/1999/xlink">
<g><path style="opacity:0.767" fill="#fefffe" d="M 15.5,0.5 C 30.9775,0.47662 38.4775,8.14329 38,23.5C 32.245,37.7522 22.4117,41.5855 8.5,35C -2.16667,24.6667 -2.16667,14.3333 8.5,4C 10.9252,2.78739 13.2585,1.62073 15.5,0.5 Z M 14.5,5.5 C 31.2861,5.07257 36.7861,12.7392 31,28.5C 29.4912,26.2903 27.6579,24.457 25.5,23C 30.6085,15.0531 28.6085,9.88646 19.5,7.5C 11.1321,9.40277 8.79874,14.2361 12.5,22C 11.0149,24.1561 9.51486,26.3228 8,28.5C 3.03143,18.638 5.1981,10.9713 14.5,5.5 Z M 17.5,11.5 C 23.1906,11.548 24.8573,14.2147 22.5,19.5C 18.8396,21.3445 16.5063,20.3445 15.5,16.5C 15.4365,14.4861 16.1032,12.8194 17.5,11.5 Z M 18.5,24.5 C 23.4101,24.6617 26.2435,26.995 27,31.5C 22.2755,33.954 17.4422,34.1207 12.5,32C 11.5494,31.2825 11.3828,30.4491 12,29.5C 13.8049,27.1743 15.9716,25.5077 18.5,24.5 Z"/></g>
</svg>
