<?xml version="1.0" encoding="UTF-8"?>
<!DOCTYPE svg PUBLIC "-//W3C//DTD SVG 1.1//EN" "http://www.w3.org/Graphics/SVG/1.1/DTD/svg11.dtd">
<svg xmlns="http://www.w3.org/2000/svg" version="1.1" width="512px" height="512px" style="shape-rendering:geometricPrecision; text-rendering:geometricPrecision; image-rendering:optimizeQuality; fill-rule:evenodd; clip-rule:evenodd" xmlns:xlink="http://www.w3.org/1999/xlink">
<g><path style="opacity:0.995" fill="#fefffe" d="M 232.5,-0.5 C 247.833,-0.5 263.167,-0.5 278.5,-0.5C 362.76,9.30941 427.926,49.6427 474,120.5C 494.82,155.127 507.32,192.46 511.5,232.5C 511.5,247.833 511.5,263.167 511.5,278.5C 501.691,362.76 461.357,427.926 390.5,474C 355.873,494.82 318.54,507.32 278.5,511.5C 263.167,511.5 247.833,511.5 232.5,511.5C 148.24,501.691 83.0737,461.357 37,390.5C 16.18,355.873 3.68001,318.54 -0.5,278.5C -0.5,263.167 -0.5,247.833 -0.5,232.5C 9.30941,148.24 49.6427,83.0737 120.5,37C 155.127,16.18 192.46,3.68001 232.5,-0.5 Z M 247.5,135.5 C 252.844,135.334 258.177,135.501 263.5,136C 266.034,136.516 268.2,137.683 270,139.5C 271.305,172.119 271.971,204.786 272,237.5C 272.5,238 273,238.5 273.5,239C 305.167,239.333 336.833,239.667 368.5,240C 370.931,240.295 372.764,241.462 374,243.5C 376,251.5 376,259.5 374,267.5C 372.764,269.538 370.931,270.705 368.5,271C 336.833,271.333 305.167,271.667 273.5,272C 273,272.5 272.5,273 272,273.5C 271.667,305.167 271.333,336.833 271,368.5C 270.705,370.931 269.538,372.764 267.5,374C 259.5,376 251.5,376 243.5,374C 241.513,372.681 240.346,370.848 240,368.5C 239.667,336.5 239.333,304.5 239,272.5C 207.238,271.671 175.405,271.171 143.5,271C 139.037,270.537 136.537,268.037 136,263.5C 134.887,256.285 135.554,249.285 138,242.5C 139.491,240.996 141.324,240.163 143.5,240C 175.405,239.829 207.238,239.329 239,238.5C 239.333,206.833 239.667,175.167 240,143.5C 240.68,138.989 243.18,136.323 247.5,135.5 Z"/></g>
</svg>
