<?xml version="1.0" encoding="UTF-8"?>
<!DOCTYPE svg PUBLIC "-//W3C//DTD SVG 1.1//EN" "http://www.w3.org/Graphics/SVG/1.1/DTD/svg11.dtd">
<svg xmlns="http://www.w3.org/2000/svg" version="1.1" width="512px" height="512px" style="shape-rendering:geometricPrecision; text-rendering:geometricPrecision; image-rendering:optimizeQuality; fill-rule:evenodd; clip-rule:evenodd" xmlns:xlink="http://www.w3.org/1999/xlink">
<g><path style="opacity:0.995" fill="#fefffe" d="M 511.5,146.5 C 511.5,158.5 511.5,170.5 511.5,182.5C 507.97,210.894 496.804,235.894 478,257.5C 403.986,331.68 329.82,405.68 255.5,479.5C 181.18,405.68 107.014,331.68 33,257.5C 14.1963,235.894 3.02965,210.894 -0.5,182.5C -0.5,170.5 -0.5,158.5 -0.5,146.5C 7.89699,93.9247 36.897,57.758 86.5,38C 142.831,21.8936 190.664,35.3936 230,78.5C 238.26,89.349 246.76,100.016 255.5,110.5C 268.869,92.6377 283.536,75.8044 299.5,60C 341.062,28.96 386.062,22.96 434.5,42C 478.439,63.4301 504.106,98.2634 511.5,146.5 Z"/></g>
</svg>
