<?xml version="1.0" encoding="UTF-8"?>
<!DOCTYPE svg PUBLIC "-//W3C//DTD SVG 1.1//EN" "http://www.w3.org/Graphics/SVG/1.1/DTD/svg11.dtd">
<svg xmlns="http://www.w3.org/2000/svg" version="1.1" width="256px" height="256px" style="shape-rendering:geometricPrecision; text-rendering:geometricPrecision; image-rendering:optimizeQuality; fill-rule:evenodd; clip-rule:evenodd" xmlns:xlink="http://www.w3.org/1999/xlink">
<g><path style="opacity:0.99" fill="#003865" d="M 73.5,38.5 C 99.1688,38.3334 124.835,38.5 150.5,39C 164.305,51.8039 177.805,64.9706 191,78.5C 192.655,120.416 192.989,162.416 192,204.5C 190.257,209.91 186.757,213.744 181.5,216C 145.5,216.667 109.5,216.667 73.5,216C 68.2425,213.744 64.7425,209.91 63,204.5C 62.3333,153.167 62.3333,101.833 63,50.5C 64.9363,45.0678 68.4363,41.0678 73.5,38.5 Z M 77.5,52.5 C 98.5,52.5 119.5,52.5 140.5,52.5C 140.333,63.8382 140.5,75.1716 141,86.5C 142.319,88.4875 144.152,89.6541 146.5,90C 157.161,90.4998 167.828,90.6665 178.5,90.5C 178.827,127.543 178.494,164.543 177.5,201.5C 144.167,202.833 110.833,202.833 77.5,201.5C 76.1712,151.833 76.1712,102.167 77.5,52.5 Z M 154.5,62.5 C 159.298,66.7967 163.965,71.2967 168.5,76C 163.845,76.4992 159.179,76.6658 154.5,76.5C 154.5,71.8333 154.5,67.1667 154.5,62.5 Z"/></g>
<g><path style="opacity:0.96" fill="#003965" d="M 93.5,112.5 C 116.169,112.333 138.836,112.5 161.5,113C 166.364,117.035 166.698,121.368 162.5,126C 139.167,126.667 115.833,126.667 92.5,126C 88.3491,121.209 88.6825,116.709 93.5,112.5 Z"/></g>
<g><path style="opacity:0.945" fill="#003966" d="M 93.5,139.5 C 116.169,139.333 138.836,139.5 161.5,140C 165.212,142.513 166.378,146.013 165,150.5C 163.745,151.211 162.579,152.044 161.5,153C 138.833,153.667 116.167,153.667 93.5,153C 89.1723,150.11 88.339,146.277 91,141.5C 91.9947,140.934 92.828,140.267 93.5,139.5 Z"/></g>
<g><path style="opacity:0.981" fill="#003866" d="M 92.5,166.5 C 108.17,166.333 123.837,166.5 139.5,167C 143.79,169.531 144.623,173.031 142,177.5C 140.829,178.893 139.329,179.727 137.5,180C 123.5,180.667 109.5,180.667 95.5,180C 89.9411,178.542 88.1077,175.042 90,169.5C 91.045,168.627 91.8783,167.627 92.5,166.5 Z"/></g>
</svg>
