<?xml version="1.0" encoding="UTF-8"?>
<!DOCTYPE svg PUBLIC "-//W3C//DTD SVG 1.1//EN" "http://www.w3.org/Graphics/SVG/1.1/DTD/svg11.dtd">
<svg xmlns="http://www.w3.org/2000/svg" version="1.1" width="512px" height="512px" style="shape-rendering:geometricPrecision; text-rendering:geometricPrecision; image-rendering:optimizeQuality; fill-rule:evenodd; clip-rule:evenodd" xmlns:xlink="http://www.w3.org/1999/xlink">
<g><path style="opacity:0.983" fill="#fefffe" d="M 128.5,41.5 C 213.167,41.3333 297.834,41.5 382.5,42C 419.912,44.0833 441.412,63.5833 447,100.5C 447.667,189.833 447.667,279.167 447,368.5C 443.363,377.982 436.53,382.982 426.5,383.5C 426.5,397.5 426.5,411.5 426.5,425.5C 442.726,427.899 449.559,437.233 447,453.5C 444.427,461.739 438.927,466.905 430.5,469C 328.5,469.667 226.5,469.667 124.5,469C 99.1041,467.225 80.6041,455.058 69,432.5C 66.7314,427.36 65.0647,422.027 64,416.5C 63.017,308.477 63.3503,200.477 65,92.5C 70.0913,70.1564 83.258,54.6564 104.5,46C 112.512,43.7624 120.512,42.2624 128.5,41.5 Z M 124.5,85.5 C 211.834,85.3333 299.167,85.5 386.5,86C 398.989,88.7902 404.822,96.6236 404,109.5C 404.5,186.499 404.667,263.499 404.5,340.5C 308.833,340.333 213.166,340.5 117.5,341C 114.081,341.521 110.748,342.355 107.5,343.5C 106.333,265.502 106.167,187.502 107,109.5C 106.291,96.5421 112.124,88.5421 124.5,85.5 Z M 127.5,383.5 C 212.833,383.5 298.167,383.5 383.5,383.5C 383.5,397.5 383.5,411.5 383.5,425.5C 296.166,425.667 208.833,425.5 121.5,425C 109.18,419.722 104.68,410.555 108,397.5C 111.916,389.064 118.416,384.397 127.5,383.5 Z"/></g>
<g><path style="opacity:0.986" fill="#fefffe" d="M 185.5,127.5 C 232.168,127.333 278.835,127.5 325.5,128C 336.856,132.205 342.023,140.372 341,152.5C 338.605,161.229 333.105,167.062 324.5,170C 278.5,170.667 232.5,170.667 186.5,170C 169.878,163.011 165.711,151.511 174,135.5C 177.15,131.689 180.983,129.023 185.5,127.5 Z"/></g>
<g><path style="opacity:0.986" fill="#fefffe" d="M 186.5,212.5 C 232.501,212.333 278.501,212.5 324.5,213C 341.122,219.989 345.289,231.489 337,247.5C 334.072,251.381 330.239,253.881 325.5,255C 278.833,255.667 232.167,255.667 185.5,255C 175.523,251.85 170.189,245.016 169.5,234.5C 170.692,223.649 176.358,216.316 186.5,212.5 Z"/></g>
</svg>
