<?xml version="1.0" encoding="UTF-8"?>
<!DOCTYPE svg PUBLIC "-//W3C//DTD SVG 1.1//EN" "http://www.w3.org/Graphics/SVG/1.1/DTD/svg11.dtd">
<svg xmlns="http://www.w3.org/2000/svg" version="1.1" width="363px" height="411px" style="shape-rendering:geometricPrecision; text-rendering:geometricPrecision; image-rendering:optimizeQuality; fill-rule:evenodd; clip-rule:evenodd" xmlns:xlink="http://www.w3.org/1999/xlink">
<g><path style="opacity:1" fill="#fcfcfd" d="M -0.5,-0.5 C 120.5,-0.5 241.5,-0.5 362.5,-0.5C 362.5,53.8333 362.5,108.167 362.5,162.5C 359.325,162.497 356.492,161.497 354,159.5C 353.667,159.833 353.333,160.167 353,160.5C 340.499,155.443 327.832,150.777 315,146.5C 311.304,148.873 308.804,152.207 307.5,156.5C 305.805,158.897 304.472,161.563 303.5,164.5C 300.057,170.4 297.39,176.733 295.5,183.5C 293.32,187.885 291.653,192.552 290.5,197.5C 287.166,207.827 284.832,218.493 283.5,229.5C 282.71,237.136 282.043,244.803 281.5,252.5C 275.87,258.631 270.036,264.631 264,270.5C 263.333,272.167 263.333,273.833 264,275.5C 271.369,282.702 278.536,290.035 285.5,297.5C 290.131,320.119 298.131,341.452 309.5,361.5C 309.5,377.833 309.5,394.167 309.5,410.5C 293.833,410.5 278.167,410.5 262.5,410.5C 264.531,387.749 262.364,365.415 256,343.5C 255.5,304.168 255.333,264.835 255.5,225.5C 269.167,201.5 282.833,177.5 296.5,153.5C 297.043,153.44 297.376,153.107 297.5,152.5C 266.167,151.167 234.833,151.167 203.5,152.5C 203.624,153.107 203.957,153.44 204.5,153.5C 219.167,177.5 233.833,201.5 248.5,225.5C 248.5,257.833 248.5,290.167 248.5,322.5C 248.167,322.5 247.833,322.5 247.5,322.5C 243.764,312.686 238.764,303.686 232.5,295.5C 231.66,293.147 230.326,291.147 228.5,289.5C 232.5,285.167 236.5,280.833 240.5,276.5C 241.778,274.456 241.612,272.456 240,270.5C 224.833,255.333 209.667,240.167 194.5,225C 192.365,224.365 190.365,224.699 188.5,226C 185.297,229.371 181.964,232.538 178.5,235.5C 175.373,232.102 171.707,229.435 167.5,227.5C 168.122,226.373 168.955,225.373 170,224.5C 170.667,209.833 170.667,195.167 170,180.5C 160.632,170.964 151.132,161.631 141.5,152.5C 127.673,151.339 113.673,151.173 99.5,152C 89.3281,161.005 79.6614,170.505 70.5,180.5C 69.3517,194.759 69.1851,209.092 70,223.5C 70.7172,224.044 71.2172,224.711 71.5,225.5C 72.1335,228.643 73.8002,231.143 76.5,233C 75.9394,234.566 76.6061,235.899 78.5,237C 77.8742,237.75 77.3742,238.584 77,239.5C 75.8469,237.503 74.3469,237.17 72.5,238.5C 72.9377,239.506 73.6043,239.506 74.5,238.5C 77.4937,241.462 77.1604,243.795 73.5,245.5C 66.7018,239.203 60.0352,232.703 53.5,226C 51.0106,225.059 49.0106,225.559 47.5,227.5C 32.5,241.833 17.8333,256.5 3.5,271.5C 1.04212,273.493 0.875457,275.826 3,278.5C 11.4211,287.426 20.2544,295.759 29.5,303.5C 30.8333,304.167 31.8333,305.167 32.5,306.5C 33.8333,309.833 36.1667,312.167 39.5,313.5C 42.5,316.167 45.5,318.833 48.5,321.5C 48.5,322.167 48.5,322.833 48.5,323.5C 48.5,352.5 48.5,381.5 48.5,410.5C 32.1667,410.5 15.8333,410.5 -0.5,410.5C -0.5,273.5 -0.5,136.5 -0.5,-0.5 Z"/></g>
<g><path style="opacity:1" fill="#15416c" d="M 107.5,29.5 C 110.045,29.1505 112.045,29.9838 113.5,32C 110.833,31.3333 108.167,31.3333 105.5,32C 106.381,31.2917 107.047,30.4584 107.5,29.5 Z"/></g>
<g><path style="opacity:1" fill="#93aabd" d="M 157.5,34.5 C 161.634,33.5151 165.968,33.1818 170.5,33.5C 170.5,35.1667 170.5,36.8333 170.5,38.5C 169.167,38.5 167.833,38.5 166.5,38.5C 167.209,37.596 168.209,37.2627 169.5,37.5C 169.5,36.5 169.5,35.5 169.5,34.5C 165.5,34.5 161.5,34.5 157.5,34.5 Z"/></g>
<g><path style="opacity:1" fill="#7f9ab1" d="M 34.5,34.5 C 33.1667,34.5 31.8333,34.5 30.5,34.5C 30.5,40.1667 30.5,45.8333 30.5,51.5C 29.5104,45.69 29.1771,39.69 29.5,33.5C 31.4147,33.2155 33.0813,33.5489 34.5,34.5 Z"/></g>
<g><path style="opacity:1" fill="#17446e" d="M 34.5,34.5 C 34.3338,40.5092 34.5005,46.5092 35,52.5C 36.0113,53.3366 37.1779,53.67 38.5,53.5C 38.5,47.1667 38.5,40.8333 38.5,34.5C 40.1667,34.5 41.8333,34.5 43.5,34.5C 43.8774,41.2569 43.3774,47.9236 42,54.5C 39.7897,57.2896 36.9563,58.123 33.5,57C 31.393,55.7365 30.393,53.9032 30.5,51.5C 30.5,45.8333 30.5,40.1667 30.5,34.5C 31.8333,34.5 33.1667,34.5 34.5,34.5 Z"/></g>
<g><path style="opacity:1" fill="#1a456f" d="M 47.5,34.5 C 49.5,34.5 51.5,34.5 53.5,34.5C 54.1154,39.5258 54.9487,44.5258 56,49.5C 57.0603,44.8031 58.227,40.1364 59.5,35.5C 61.0453,34.5481 62.712,34.2148 64.5,34.5C 65.3577,42.1322 65.6911,49.7989 65.5,57.5C 64.1667,57.5 62.8333,57.5 61.5,57.5C 61.6659,52.4889 61.4993,47.4889 61,42.5C 60,46.5 59,50.5 58,54.5C 57.0475,56.5922 55.7141,56.9255 54,55.5C 53.6247,51.3321 52.6247,47.3321 51,43.5C 50.5008,48.1548 50.3342,52.8215 50.5,57.5C 49.1667,57.5 47.8333,57.5 46.5,57.5C 46.6802,49.8252 47.0135,42.1585 47.5,34.5 Z"/></g>
<g><path style="opacity:1" fill="#1b4771" d="M 72.5,34.5 C 76.8333,34.5 81.1667,34.5 85.5,34.5C 85.5,35.8333 85.5,37.1667 85.5,38.5C 84.1667,38.5 82.8333,38.5 81.5,38.5C 81.5,44.8333 81.5,51.1667 81.5,57.5C 79.8333,57.5 78.1667,57.5 76.5,57.5C 76.5,51.1667 76.5,44.8333 76.5,38.5C 75.1667,38.5 73.8333,38.5 72.5,38.5C 72.5,37.1667 72.5,35.8333 72.5,34.5 Z"/></g>
<g><path style="opacity:1" fill="#4a6d8e" d="M 150.5,33.5 C 152.167,33.5 153.833,33.5 155.5,33.5C 155.5,41.5 155.5,49.5 155.5,57.5C 153.833,57.5 152.167,57.5 150.5,57.5C 150.5,49.5 150.5,41.5 150.5,33.5 Z"/></g>
<g><path style="opacity:1" fill="#023a66" d="M 151.5,34.5 C 152.5,34.5 153.5,34.5 154.5,34.5C 154.5,41.8333 154.5,49.1667 154.5,56.5C 153.5,56.5 152.5,56.5 151.5,56.5C 151.5,49.1667 151.5,41.8333 151.5,34.5 Z"/></g>
<g><path style="opacity:1" fill="#1f4972" d="M 157.5,34.5 C 161.5,34.5 165.5,34.5 169.5,34.5C 169.5,35.5 169.5,36.5 169.5,37.5C 168.209,37.2627 167.209,37.596 166.5,38.5C 166.5,44.8333 166.5,51.1667 166.5,57.5C 164.833,57.5 163.167,57.5 161.5,57.5C 161.5,51.1667 161.5,44.8333 161.5,38.5C 160.167,38.5 158.833,38.5 157.5,38.5C 157.5,37.1667 157.5,35.8333 157.5,34.5 Z"/></g>
<g><path style="opacity:1" fill="#1c4670" d="M 218.5,34.5 C 220.833,34.5 223.167,34.5 225.5,34.5C 226.607,42.1437 227.607,49.8104 228.5,57.5C 227.167,57.5 225.833,57.5 224.5,57.5C 224.5,55.8333 224.5,54.1667 224.5,52.5C 220.062,51.4251 218.062,53.0917 218.5,57.5C 217.167,57.5 215.833,57.5 214.5,57.5C 215.726,49.8115 217.059,42.1448 218.5,34.5 Z"/></g>
<g><path style="opacity:1" fill="#849eb5" d="M 231.5,34.5 C 232.919,33.5489 234.585,33.2155 236.5,33.5C 236.826,41.6841 236.492,49.6841 235.5,57.5C 235.5,49.8333 235.5,42.1667 235.5,34.5C 234.167,34.5 232.833,34.5 231.5,34.5 Z"/></g>
<g><path style="opacity:1" fill="#0d3f6a" d="M 282.5,37.5 C 280.5,37.5 278.5,37.5 276.5,37.5C 276.205,39.7354 276.539,41.7354 277.5,43.5C 278.833,43.5 280.167,43.5 281.5,43.5C 281.5,44.5 281.5,45.5 281.5,46.5C 279.833,46.5 278.167,46.5 276.5,46.5C 276.198,49.0593 276.532,51.3926 277.5,53.5C 279.167,53.5 280.833,53.5 282.5,53.5C 282.5,54.8333 282.5,56.1667 282.5,57.5C 279.167,57.5 275.833,57.5 272.5,57.5C 272.5,49.8333 272.5,42.1667 272.5,34.5C 275.833,34.5 279.167,34.5 282.5,34.5C 282.5,35.5 282.5,36.5 282.5,37.5 Z"/></g>
<g><path style="opacity:1" fill="#083c68" d="M 310.5,51.5 C 311.489,46.0247 311.822,40.358 311.5,34.5C 312.833,34.5 314.167,34.5 315.5,34.5C 315.666,40.5092 315.499,46.5092 315,52.5C 313.287,57.038 310.12,58.538 305.5,57C 304.299,56.0975 303.465,54.9308 303,53.5C 302.5,47.1754 302.334,40.8421 302.5,34.5C 303.833,34.5 305.167,34.5 306.5,34.5C 306.334,40.5092 306.501,46.5092 307,52.5C 308.756,53.985 309.923,53.6516 310.5,51.5 Z"/></g>
<g><path style="opacity:1" fill="#7997ae" d="M 315.5,34.5 C 314.167,34.5 312.833,34.5 311.5,34.5C 311.822,40.358 311.489,46.0247 310.5,51.5C 310.5,45.5 310.5,39.5 310.5,33.5C 312.415,33.2155 314.081,33.5489 315.5,34.5 Z"/></g>
<g><path style="opacity:1" fill="#033b67" d="M 231.5,34.5 C 232.833,34.5 234.167,34.5 235.5,34.5C 235.5,42.1667 235.5,49.8333 235.5,57.5C 234.167,57.5 232.833,57.5 231.5,57.5C 231.5,49.8333 231.5,42.1667 231.5,34.5 Z"/></g>
<g><path style="opacity:1" fill="#6c8ca6" d="M 129.5,34.5 C 130.568,33.5655 131.901,33.2322 133.5,33.5C 133.5,41.5 133.5,49.5 133.5,57.5C 131.585,57.7845 129.919,57.4511 128.5,56.5C 129.833,56.5 131.167,56.5 132.5,56.5C 132.5,49.1667 132.5,41.8333 132.5,34.5C 131.5,34.5 130.5,34.5 129.5,34.5 Z"/></g>
<g><path style="opacity:1" fill="#17436e" d="M 176.5,33.5 C 180.493,33.2447 183.326,34.9114 185,38.5C 185.839,43.9212 185.506,49.2545 184,54.5C 180.254,58.3927 176.588,58.3927 173,54.5C 171.494,49.2545 171.161,43.9212 172,38.5C 173.366,36.6383 174.866,34.9717 176.5,33.5 Z"/></g>
<g><path style="opacity:1" fill="#18426d" d="M 290.5,34.5 C 293.167,34.5 295.833,34.5 298.5,34.5C 298.67,35.8221 298.337,36.9887 297.5,38C 295.5,38.3333 293.5,38.6667 291.5,39C 289.016,43.3597 288.85,47.8597 291,52.5C 292.011,53.3366 293.178,53.67 294.5,53.5C 294.442,50.3356 293.776,47.3356 292.5,44.5C 294.5,44.5 296.5,44.5 298.5,44.5C 298.5,48.8333 298.5,53.1667 298.5,57.5C 287.613,58.4329 283.113,53.4329 285,42.5C 286.117,39.2409 287.95,36.5743 290.5,34.5 Z"/></g>
<g><path style="opacity:1" fill="#15426d" d="M 319.5,34.5 C 322.85,34.335 326.183,34.5017 329.5,35C 333.339,38.7168 333.339,42.5501 329.5,46.5C 331.379,49.8777 332.379,53.5443 332.5,57.5C 331.022,57.762 329.689,57.4287 328.5,56.5C 327.787,54.2241 327.287,51.8907 327,49.5C 325.989,48.6634 324.822,48.33 323.5,48.5C 323.5,51.5 323.5,54.5 323.5,57.5C 322.167,57.5 320.833,57.5 319.5,57.5C 319.5,49.8333 319.5,42.1667 319.5,34.5 Z"/></g>
<g><path style="opacity:1" fill="#18446e" d="M 339.5,33.5 C 343.493,33.2447 346.326,34.9114 348,38.5C 348.667,43.1667 348.667,47.8333 348,52.5C 345.434,57.7575 341.767,58.7575 337,55.5C 332.956,47.4476 333.789,40.1143 339.5,33.5 Z"/></g>
<g><path style="opacity:1" fill="#1a456f" d="M 106.5,34.5 C 108.792,34.2436 110.959,34.5769 113,35.5C 114.489,42.7877 115.656,50.1211 116.5,57.5C 112.849,57.8383 111.183,56.1716 111.5,52.5C 109.833,52.5 108.167,52.5 106.5,52.5C 106.5,54.1667 106.5,55.8333 106.5,57.5C 105.167,57.5 103.833,57.5 102.5,57.5C 103.538,49.7663 104.872,42.0997 106.5,34.5 Z"/></g>
<g><path style="opacity:1" fill="#edf1f4" d="M 177.5,37.5 C 178.496,37.4142 179.329,37.7476 180,38.5C 180.667,43.1667 180.667,47.8333 180,52.5C 178.413,53.727 177.079,53.3937 176,51.5C 175.034,46.6099 175.534,41.9432 177.5,37.5 Z"/></g>
<g><path style="opacity:1" fill="#7c98b0" d="M 282.5,37.5 C 281.081,38.4511 279.415,38.7845 277.5,38.5C 277.5,40.1667 277.5,41.8333 277.5,43.5C 276.539,41.7354 276.205,39.7354 276.5,37.5C 278.5,37.5 280.5,37.5 282.5,37.5 Z"/></g>
<g><path style="opacity:1" fill="#dae2e9" d="M 323.5,37.5 C 327.473,38.0755 328.473,40.2421 326.5,44C 325.552,44.4828 324.552,44.6495 323.5,44.5C 323.5,42.1667 323.5,39.8333 323.5,37.5 Z"/></g>
<g><path style="opacity:1" fill="#eaeff2" d="M 340.5,37.5 C 342.411,37.5743 343.578,38.5743 344,40.5C 344.629,44.8706 344.463,49.204 343.5,53.5C 342.178,53.67 341.011,53.3366 340,52.5C 339.222,47.4158 339.389,42.4158 340.5,37.5 Z"/></g>
<g><path style="opacity:1" fill="#16426d" d="M 194.5,34.5 C 196.288,34.2148 197.955,34.5481 199.5,35.5C 200.855,39.4402 202.022,43.4402 203,47.5C 204.212,43.5733 205.212,39.5733 206,35.5C 207.699,34.5939 209.533,34.2606 211.5,34.5C 212.07,42.154 212.404,49.8207 212.5,57.5C 211.167,57.5 209.833,57.5 208.5,57.5C 208.666,52.8215 208.499,48.1548 208,43.5C 206.524,47.3559 205.358,51.3559 204.5,55.5C 203.311,56.4287 201.978,56.762 200.5,56.5C 199.992,51.7842 199.158,47.1176 198,42.5C 197.501,47.4889 197.334,52.4889 197.5,57.5C 196.167,57.5 194.833,57.5 193.5,57.5C 193.46,49.8127 193.793,42.1461 194.5,34.5 Z"/></g>
<g><path style="opacity:1" fill="#13406c" d="M 261.5,34.5 C 263.833,34.5 266.167,34.5 268.5,34.5C 268.5,35.5 268.5,36.5 268.5,37.5C 266.801,37.3398 265.134,37.5065 263.5,38C 262.978,38.5613 262.645,39.228 262.5,40C 263.987,42.8208 266.154,44.9874 269,46.5C 270.955,54.7913 267.788,58.2913 259.5,57C 258.663,55.9887 258.33,54.8221 258.5,53.5C 260.527,53.6621 262.527,53.4955 264.5,53C 265.022,52.4387 265.355,51.772 265.5,51C 263.653,48.1751 261.486,45.6751 259,43.5C 257.93,39.8579 258.764,36.8579 261.5,34.5 Z"/></g>
<g><path style="opacity:1" fill="#13416c" d="M 242.5,34.5 C 244.833,34.5 247.167,34.5 249.5,34.5C 249.5,35.5 249.5,36.5 249.5,37.5C 247.801,37.3398 246.134,37.5065 244.5,38C 243.978,38.5613 243.645,39.228 243.5,40C 244.987,42.8208 247.154,44.9874 250,46.5C 251.83,55.1712 248.33,58.8379 239.5,57.5C 239.5,56.1667 239.5,54.8333 239.5,53.5C 241.527,53.6621 243.527,53.4955 245.5,53C 246.022,52.4387 246.355,51.772 246.5,51C 244.653,48.1751 242.486,45.6751 240,43.5C 238.93,39.8579 239.764,36.8579 242.5,34.5 Z"/></g>
<g><path style="opacity:1" fill="#18446f" d="M 87.5,34.5 C 90.8499,34.335 94.1832,34.5017 97.5,35C 101.455,38.7951 101.455,42.6285 97.5,46.5C 99.8793,49.7571 100.879,53.4238 100.5,57.5C 99.1667,57.5 97.8333,57.5 96.5,57.5C 96.5591,54.0382 95.5591,51.0382 93.5,48.5C 92.5159,51.4281 92.1826,54.4281 92.5,57.5C 90.8333,57.5 89.1667,57.5 87.5,57.5C 87.5,49.8333 87.5,42.1667 87.5,34.5 Z"/></g>
<g><path style="opacity:1" fill="#f0f3f6" d="M 92.5,37.5 C 94.7224,37.5587 95.7224,38.7253 95.5,41C 95.6125,42.6624 94.9458,43.8291 93.5,44.5C 92.5258,42.2573 92.1924,39.924 92.5,37.5 Z"/></g>
<g><path style="opacity:1" fill="#cad5df" d="M 108.5,39.5 C 110.388,41.9878 111.055,44.9878 110.5,48.5C 109.325,48.719 108.325,48.3857 107.5,47.5C 108.393,44.9159 108.726,42.2492 108.5,39.5 Z"/></g>
<g><path style="opacity:1" fill="#dbe2e9" d="M 221.5,40.5 C 222.531,42.9608 223.198,45.6275 223.5,48.5C 222.5,48.5 221.5,48.5 220.5,48.5C 220.401,45.7628 220.735,43.0961 221.5,40.5 Z"/></g>
<g><path style="opacity:1" fill="#19456f" d="M 129.5,34.5 C 130.5,34.5 131.5,34.5 132.5,34.5C 132.5,41.8333 132.5,49.1667 132.5,56.5C 131.167,56.5 129.833,56.5 128.5,56.5C 127.105,52.4849 125.605,48.4849 124,44.5C 123.501,48.8206 123.334,53.1539 123.5,57.5C 122.167,57.5 120.833,57.5 119.5,57.5C 119.5,49.8333 119.5,42.1667 119.5,34.5C 121.167,34.5 122.833,34.5 124.5,34.5C 125.693,38.9106 127.193,43.2439 129,47.5C 129.499,43.1794 129.666,38.8461 129.5,34.5 Z"/></g>
<g><path style="opacity:1" fill="#6687a2" d="M 281.5,43.5 C 282.434,44.5676 282.768,45.901 282.5,47.5C 280.833,47.5 279.167,47.5 277.5,47.5C 277.5,49.5 277.5,51.5 277.5,53.5C 277.5,51.5 277.5,49.5 277.5,47.5C 279.167,47.5 280.833,47.5 282.5,47.5C 282.768,45.901 282.434,44.5676 281.5,43.5 Z"/></g>
<g><path style="opacity:1" fill="#13416c" d="M 139.5,34.5 C 141.833,34.5 144.167,34.5 146.5,34.5C 146.657,35.8734 146.49,37.2068 146,38.5C 143.52,36.9103 141.687,37.4103 140.5,40C 141.987,42.8208 144.154,44.9874 147,46.5C 148.83,55.1712 145.33,58.8379 136.5,57.5C 136.5,56.1667 136.5,54.8333 136.5,53.5C 138.527,53.6621 140.527,53.4955 142.5,53C 143.022,52.4387 143.355,51.772 143.5,51C 141.653,48.1751 139.486,45.6751 137,43.5C 135.93,39.8579 136.764,36.8579 139.5,34.5 Z"/></g>
<g><path style="opacity:1" fill="#204a73" d="M 40.5,61.5 C 42.604,61.2011 44.604,61.5344 46.5,62.5C 44.7475,64.2611 42.7475,65.5944 40.5,66.5C 39.8333,66.1667 39.1667,65.8333 38.5,65.5C 39.6302,64.3777 40.2969,63.0443 40.5,61.5 Z"/></g>
<g><path style="opacity:1" fill="#386386" d="M 120.5,69.5 C 115.167,69.5 109.833,69.5 104.5,69.5C 104.5,70.8333 104.5,72.1667 104.5,73.5C 106.415,73.2155 108.081,73.5489 109.5,74.5C 107.5,74.5 105.5,74.5 103.5,74.5C 103.5,72.5 103.5,70.5 103.5,68.5C 109.358,68.1778 115.025,68.5111 120.5,69.5 Z"/></g>
<g><path style="opacity:1" fill="#527695" d="M 232.5,99.5 C 232.5,90.8333 232.5,82.1667 232.5,73.5C 234.167,73.5 235.833,73.5 237.5,73.5C 237.5,72.1667 237.5,70.8333 237.5,69.5C 232.5,69.5 227.5,69.5 222.5,69.5C 222.5,70.8333 222.5,72.1667 222.5,73.5C 224.099,73.2322 225.432,73.5655 226.5,74.5C 224.833,74.5 223.167,74.5 221.5,74.5C 221.5,72.5 221.5,70.5 221.5,68.5C 227.167,68.5 232.833,68.5 238.5,68.5C 238.5,70.5 238.5,72.5 238.5,74.5C 236.833,74.5 235.167,74.5 233.5,74.5C 233.826,83.0168 233.493,91.3501 232.5,99.5 Z"/></g>
<g><path style="opacity:1" fill="#11406b" d="M 46.5,73.5 C 43.8333,73.5 41.1667,73.5 38.5,73.5C 38.1984,76.0593 38.5318,78.3926 39.5,80.5C 41.8333,80.5 44.1667,80.5 46.5,80.5C 46.5,82.1667 46.5,83.8333 46.5,85.5C 44.1667,85.5 41.8333,85.5 39.5,85.5C 39.5,88.5 39.5,91.5 39.5,94.5C 42.1667,94.5 44.8333,94.5 47.5,94.5C 47.5,96.1667 47.5,97.8333 47.5,99.5C 42.8333,99.5 38.1667,99.5 33.5,99.5C 33.5,89.1667 33.5,78.8333 33.5,68.5C 37.8333,68.5 42.1667,68.5 46.5,68.5C 46.5,70.1667 46.5,71.8333 46.5,73.5 Z"/></g>
<g><path style="opacity:1" fill="#2c577d" d="M 71.5,73.5 C 71.5,72.1667 71.5,70.8333 71.5,69.5C 67.5,69.5 63.5,69.5 59.5,69.5C 59.5,79.1667 59.5,88.8333 59.5,98.5C 61.1667,98.5 62.8333,98.5 64.5,98.5C 62.7354,99.4614 60.7354,99.7947 58.5,99.5C 58.5,89.1667 58.5,78.8333 58.5,68.5C 63.1667,68.5 67.8333,68.5 72.5,68.5C 72.7845,70.4147 72.4511,72.0813 71.5,73.5 Z"/></g>
<g><path style="opacity:1" fill="#063b68" d="M 71.5,73.5 C 69.1667,73.5 66.8333,73.5 64.5,73.5C 64.5,76.1667 64.5,78.8333 64.5,81.5C 66.8333,81.5 69.1667,81.5 71.5,81.5C 71.5,83.1667 71.5,84.8333 71.5,86.5C 69.1667,86.5 66.8333,86.5 64.5,86.5C 64.5,90.5 64.5,94.5 64.5,98.5C 62.8333,98.5 61.1667,98.5 59.5,98.5C 59.5,88.8333 59.5,79.1667 59.5,69.5C 63.5,69.5 67.5,69.5 71.5,69.5C 71.5,70.8333 71.5,72.1667 71.5,73.5 Z"/></g>
<g><path style="opacity:1" fill="#0a3d69" d="M 76.5,68.5 C 80.8333,68.5 85.1667,68.5 89.5,68.5C 89.5,70.1667 89.5,71.8333 89.5,73.5C 87.1667,73.5 84.8333,73.5 82.5,73.5C 82.5,75.8333 82.5,78.1667 82.5,80.5C 84.8333,80.5 87.1667,80.5 89.5,80.5C 89.5,82.1667 89.5,83.8333 89.5,85.5C 87.1667,85.5 84.8333,85.5 82.5,85.5C 82.5,88.5 82.5,91.5 82.5,94.5C 85.1667,94.5 87.8333,94.5 90.5,94.5C 90.5,96.1667 90.5,97.8333 90.5,99.5C 85.8333,99.5 81.1667,99.5 76.5,99.5C 76.5,89.1667 76.5,78.8333 76.5,68.5 Z"/></g>
<g><path style="opacity:1" fill="#14416d" d="M 94.5,68.5 C 96.5,68.5 98.5,68.5 100.5,68.5C 100.5,78.8333 100.5,89.1667 100.5,99.5C 98.5,99.5 96.5,99.5 94.5,99.5C 94.5,89.1667 94.5,78.8333 94.5,68.5 Z"/></g>
<g><path style="opacity:1" fill="#16426d" d="M 120.5,69.5 C 120.5,71.1667 120.5,72.8333 120.5,74.5C 118.833,74.5 117.167,74.5 115.5,74.5C 115.5,82.8333 115.5,91.1667 115.5,99.5C 113.5,99.5 111.5,99.5 109.5,99.5C 109.5,91.1667 109.5,82.8333 109.5,74.5C 108.081,73.5489 106.415,73.2155 104.5,73.5C 104.5,72.1667 104.5,70.8333 104.5,69.5C 109.833,69.5 115.167,69.5 120.5,69.5 Z"/></g>
<g><path style="opacity:1" fill="#13406c" d="M 127.5,68.5 C 134.339,67.1656 138.839,69.8323 141,76.5C 142.081,83.0544 141.414,89.3877 139,95.5C 130.376,102.303 124.71,100.303 122,89.5C 120.077,81.4314 121.91,74.4314 127.5,68.5 Z"/></g>
<g><path style="opacity:1" fill="#0d3f6a" d="M 152.5,68.5 C 156.514,68.3345 160.514,68.5012 164.5,69C 169.922,73.1421 170.922,78.3088 167.5,84.5C 165.08,87.0772 162.08,88.0772 158.5,87.5C 158.5,91.5 158.5,95.5 158.5,99.5C 156.5,99.5 154.5,99.5 152.5,99.5C 152.5,89.1667 152.5,78.8333 152.5,68.5 Z"/></g>
<g><path style="opacity:1" fill="#11406b" d="M 178.5,68.5 C 184.887,67.7229 189.053,70.3895 191,76.5C 192.011,83.0239 191.345,89.3573 189,95.5C 180.376,102.303 174.71,100.303 172,89.5C 169.764,80.9546 171.93,73.9546 178.5,68.5 Z"/></g>
<g><path style="opacity:1" fill="#10406b" d="M 195.5,68.5 C 199.182,68.3347 202.848,68.5014 206.5,69C 211.924,71.017 213.758,74.8503 212,80.5C 211.215,82.286 210.049,83.786 208.5,85C 211.045,89.1295 212.711,93.6295 213.5,98.5C 211.257,99.4742 208.924,99.8076 206.5,99.5C 206.219,95.8121 205.719,92.1454 205,88.5C 203.989,87.6634 202.822,87.33 201.5,87.5C 201.5,91.5 201.5,95.5 201.5,99.5C 199.5,99.5 197.5,99.5 195.5,99.5C 195.5,89.1667 195.5,78.8333 195.5,68.5 Z"/></g>
<g><path style="opacity:1" fill="#15416d" d="M 232.5,99.5 C 230.5,99.5 228.5,99.5 226.5,99.5C 226.5,91.1667 226.5,82.8333 226.5,74.5C 225.432,73.5655 224.099,73.2322 222.5,73.5C 222.5,72.1667 222.5,70.8333 222.5,69.5C 227.5,69.5 232.5,69.5 237.5,69.5C 237.5,70.8333 237.5,72.1667 237.5,73.5C 235.833,73.5 234.167,73.5 232.5,73.5C 232.5,82.1667 232.5,90.8333 232.5,99.5 Z"/></g>
<g><path style="opacity:1" fill="#12416c" d="M 245.5,68.5 C 252.778,67.2718 257.278,70.2718 259,77.5C 259.838,84.1386 258.838,90.4719 256,96.5C 247.997,101.917 242.663,99.9167 240,90.5C 238.025,82.073 239.858,74.7397 245.5,68.5 Z"/></g>
<g><path style="opacity:1" fill="#0a3c68" d="M 263.5,68.5 C 274.633,66.5373 280.633,71.0373 281.5,82C 282.182,94.819 276.182,100.652 263.5,99.5C 263.5,89.1667 263.5,78.8333 263.5,68.5 Z"/></g>
<g><path style="opacity:1" fill="#11406b" d="M 290.5,68.5 C 296.731,67.3613 300.898,69.6946 303,75.5C 304.034,82.3667 303.367,89.0333 301,95.5C 298.045,99.2765 294.212,100.443 289.5,99C 287.383,97.2691 285.883,95.1024 285,92.5C 284.333,87.1667 284.333,81.8333 285,76.5C 286.117,73.2409 287.95,70.5743 290.5,68.5 Z"/></g>
<g><path style="opacity:1" fill="#0e3e6a" d="M 325.5,68.5 C 327.5,68.5 329.5,68.5 331.5,68.5C 330.768,75.4756 330.435,82.4756 330.5,89.5C 328.833,89.5 327.167,89.5 325.5,89.5C 325.5,82.5 325.5,75.5 325.5,68.5 Z"/></g>
<g><path style="opacity:1" fill="#14416d" d="M 311.5,68.5 C 314.5,68.5 317.5,68.5 320.5,68.5C 320.66,70.1992 320.494,71.8659 320,73.5C 318.026,73.6256 315.859,73.7922 313.5,74C 312.424,75.7261 312.257,77.5594 313,79.5C 321.946,83.6076 323.779,89.7743 318.5,98C 314.605,99.2662 310.605,99.7662 306.5,99.5C 306.201,97.396 306.534,95.396 307.5,93.5C 313.293,96.0721 315.793,94.4054 315,88.5C 311.667,86.5 309,83.8333 307,80.5C 305.474,75.2389 306.974,71.2389 311.5,68.5 Z"/></g>
<g><path style="opacity:1" fill="#edf1f4" d="M 201.5,73.5 C 206.737,73.9902 207.903,76.6569 205,81.5C 203.989,82.3366 202.822,82.67 201.5,82.5C 201.5,79.5 201.5,76.5 201.5,73.5 Z"/></g>
<g><path style="opacity:1" fill="#e2e8ed" d="M 268.5,73.5 C 274.048,74.0445 276.382,77.2111 275.5,83C 275.675,86.7457 274.842,90.2457 273,93.5C 271.644,94.3802 270.144,94.7135 268.5,94.5C 268.5,87.5 268.5,80.5 268.5,73.5 Z"/></g>
<g><path style="opacity:1" fill="#6584a1" d="M 46.5,73.5 C 44.3926,74.4682 42.0593,74.8016 39.5,74.5C 39.5,76.5 39.5,78.5 39.5,80.5C 38.5318,78.3926 38.1984,76.0593 38.5,73.5C 41.1667,73.5 43.8333,73.5 46.5,73.5 Z"/></g>
<g><path style="opacity:1" fill="#e6ebef" d="M 130.5,73.5 C 134.606,75.2044 136.273,78.3711 135.5,83C 135.418,86.2351 134.918,89.4018 134,92.5C 133.612,93.428 132.945,94.0946 132,94.5C 128.348,91.8455 126.848,88.1789 127.5,83.5C 127.084,79.6681 128.084,76.3347 130.5,73.5 Z"/></g>
<g><path style="opacity:1" fill="#ecf0f3" d="M 158.5,73.5 C 162.24,72.7415 163.907,74.2415 163.5,78C 163.729,81.6028 162.062,83.4362 158.5,83.5C 158.5,80.1667 158.5,76.8333 158.5,73.5 Z"/></g>
<g><path style="opacity:1" fill="#ecf0f3" d="M 180.5,73.5 C 182.592,73.5614 184.092,74.5614 185,76.5C 185.667,81.1667 185.667,85.8333 185,90.5C 183.899,94.6001 181.899,95.2668 179,92.5C 178.333,86.8333 178.333,81.1667 179,75.5C 179.717,74.9558 180.217,74.2891 180.5,73.5 Z"/></g>
<g><path style="opacity:1" fill="#eff2f5" d="M 247.5,73.5 C 249.39,73.2965 250.89,73.9632 252,75.5C 252.667,81.1667 252.667,86.8333 252,92.5C 249.101,95.2668 247.101,94.6001 246,90.5C 245.052,84.6547 245.552,78.988 247.5,73.5 Z"/></g>
<g><path style="opacity:1" fill="#f1f4f6" d="M 292.5,73.5 C 294.911,73.1367 296.411,74.1367 297,76.5C 297.667,81.1667 297.667,85.8333 297,90.5C 295.437,95.2538 293.437,95.5871 291,91.5C 289.979,85.2899 290.479,79.2899 292.5,73.5 Z"/></g>
<g><path style="opacity:1" fill="#1d4771" d="M 326.5,92.5 C 331.328,92.3852 332.661,94.5519 330.5,99C 324.738,99.4178 323.404,97.2511 326.5,92.5 Z"/></g>
<g><path style="opacity:1" fill="#456b8c" d="M 255.5,109.5 C 256.805,111.397 257.471,113.731 257.5,116.5C 257.167,118.833 256.833,121.167 256.5,123.5C 255.507,118.88 255.173,114.214 255.5,109.5 Z"/></g>
<g><path style="opacity:1" fill="#335c81" d="M 90.5,109.5 C 92.288,109.215 93.9547,109.548 95.5,110.5C 94.675,111.386 93.675,111.719 92.5,111.5C 92.5,112.833 92.5,114.167 92.5,115.5C 96.5,116.167 96.5,116.833 92.5,117.5C 92.5,119.167 92.5,120.833 92.5,122.5C 93.8734,122.343 95.2068,122.51 96.5,123C 94.5273,123.495 92.5273,123.662 90.5,123.5C 90.5,118.833 90.5,114.167 90.5,109.5 Z"/></g>
<g><path style="opacity:1" fill="#335f83" d="M 212.5,109.5 C 214.604,109.201 216.604,109.534 218.5,110.5C 216.972,114.639 215.972,118.972 215.5,123.5C 214.919,118.659 213.919,113.993 212.5,109.5 Z"/></g>
<g><path style="opacity:1" fill="#375e83" d="M 220.5,109.5 C 227.004,109.138 228.671,111.638 225.5,117C 227.965,125.265 227.299,125.432 223.5,117.5C 222.833,119.5 222.167,121.5 221.5,123.5C 220.507,118.88 220.173,114.214 220.5,109.5 Z"/></g>
<g><path style="opacity:1" fill="#dfe6ec" d="M 222.5,111.5 C 223.5,111.5 224.5,111.5 225.5,111.5C 225.884,113.665 225.217,115.332 223.5,116.5C 222.548,114.955 222.215,113.288 222.5,111.5 Z"/></g>
<g><path style="opacity:1" fill="#335e82" d="M 259.5,109.5 C 261.604,109.201 263.604,109.534 265.5,110.5C 263.972,114.639 262.972,118.972 262.5,123.5C 261.919,118.659 260.919,113.993 259.5,109.5 Z"/></g>
<g><path style="opacity:1" fill="#2e587e" d="M 107.5,109.5 C 108.324,113.312 108.824,117.312 109,121.5C 110,122.833 111,122.833 112,121.5C 113.331,105.5 113.998,105.5 114,121.5C 112.33,123.698 110.33,124.032 108,122.5C 107.501,118.179 107.334,113.846 107.5,109.5 Z"/></g>
<g><path style="opacity:1" fill="#728da7" d="M 234.5,113.5 C 233.549,114.919 233.216,116.585 233.5,118.5C 232.167,118.5 230.833,118.5 229.5,118.5C 230.08,114.858 230.58,111.191 231,107.5C 232.297,106.216 233.464,106.383 234.5,108C 233.5,108.333 232.5,108.667 231.5,109C 233.376,109.918 234.376,111.418 234.5,113.5 Z"/></g>
<g><path style="opacity:1" fill="#375e83" d="M 97.5,109.5 C 102.627,108.958 105.294,111.291 105.5,116.5C 105.294,121.709 102.627,124.042 97.5,123.5C 97.5,118.833 97.5,114.167 97.5,109.5 Z"/></g>
<g><path style="opacity:1" fill="#ecf0f3" d="M 99.5,111.5 C 102.893,111.375 104.226,113.042 103.5,116.5C 103.918,119.271 102.918,121.271 100.5,122.5C 99.5108,118.893 99.1774,115.226 99.5,111.5 Z"/></g>
<g><path style="opacity:1" fill="#395e83" d="M 152.5,109.5 C 155.238,108.965 157.072,109.965 158,112.5C 158.929,116.244 158.429,119.744 156.5,123C 154.251,123.863 152.418,123.363 151,121.5C 149.994,117.198 150.494,113.198 152.5,109.5 Z"/></g>
<g><path style="opacity:1" fill="#eff2f5" d="M 152.5,111.5 C 153.822,111.33 154.989,111.663 156,112.5C 156.667,115.5 156.667,118.5 156,121.5C 155,122.833 154,122.833 153,121.5C 152.502,118.183 152.335,114.85 152.5,111.5 Z"/></g>
<g><path style="opacity:1" fill="#3b6185" d="M 119.5,109.5 C 120.675,109.281 121.675,109.614 122.5,110.5C 121.372,111.262 120.205,111.929 119,112.5C 118.333,115.5 118.333,118.5 119,121.5C 120.067,122.191 121.234,122.691 122.5,123C 117.926,123.76 115.926,121.76 116.5,117C 116.11,113.876 117.11,111.376 119.5,109.5 Z"/></g>
<g><path style="opacity:1" fill="#385d82" d="M 163.5,109.5 C 169.067,108.753 170.9,111.087 169,116.5C 167.989,117.337 166.822,117.67 165.5,117.5C 165.799,119.604 165.466,121.604 164.5,123.5C 163.507,118.88 163.173,114.214 163.5,109.5 Z"/></g>
<g><path style="opacity:1" fill="#e4eaee" d="M 165.5,111.5 C 166.5,111.5 167.5,111.5 168.5,111.5C 168.884,113.665 168.217,115.332 166.5,116.5C 165.548,114.955 165.215,113.288 165.5,111.5 Z"/></g>
<g><path style="opacity:1" fill="#375e83" d="M 179.5,109.5 C 186.004,109.138 187.671,111.638 184.5,117C 186.378,118.993 186.712,121.159 185.5,123.5C 183.627,115.721 181.96,115.721 180.5,123.5C 179.507,118.88 179.173,114.214 179.5,109.5 Z"/></g>
<g><path style="opacity:1" fill="#edf1f4" d="M 181.5,111.5 C 182.5,111.5 183.5,111.5 184.5,111.5C 184.884,113.665 184.217,115.332 182.5,116.5C 181.548,114.955 181.215,113.288 181.5,111.5 Z"/></g>
<g><path style="opacity:1" fill="#8199b1" d="M 144.5,109.5 C 145.92,112.261 146.587,115.261 146.5,118.5C 145.041,118.567 143.708,118.234 142.5,117.5C 143.724,114.495 143.724,111.495 142.5,108.5C 142.833,107.5 143.5,106.833 144.5,106.5C 145.635,107.103 146.635,107.436 147.5,107.5C 146.398,108.176 145.398,108.842 144.5,109.5 Z"/></g>
<g><path style="opacity:1" fill="#2a567c" d="M 238.5,109.5 C 239.376,109.369 240.043,109.702 240.5,110.5C 241.569,113.539 242.735,116.539 244,119.5C 244.333,116.167 244.667,112.833 245,109.5C 245.828,114.202 245.662,118.869 244.5,123.5C 242.731,120.294 241.231,116.961 240,113.5C 239.667,116.833 239.333,120.167 239,123.5C 238.501,118.845 238.334,114.179 238.5,109.5 Z"/></g>
<g><path style="opacity:1" fill="#29537a" d="M 249.5,109.5 C 254.833,110.167 254.833,110.833 249.5,111.5C 250.589,114.43 251.923,117.264 253.5,120C 252.862,123.293 250.862,124.293 247.5,123C 248.833,122.667 250.167,122.333 251.5,122C 252.022,121.439 252.355,120.772 252.5,120C 250.833,117.667 249.167,115.333 247.5,113C 247.978,111.697 248.645,110.531 249.5,109.5 Z"/></g>
<g><path style="opacity:1" fill="#3b6085" d="M 268.5,109.5 C 271.238,108.965 273.072,109.965 274,112.5C 274.929,116.244 274.429,119.744 272.5,123C 270.251,123.863 268.418,123.363 267,121.5C 265.994,117.198 266.494,113.198 268.5,109.5 Z"/></g>
<g><path style="opacity:1" fill="#f3f6f8" d="M 268.5,111.5 C 269.822,111.33 270.989,111.663 272,112.5C 272.966,116.118 272.466,119.451 270.5,122.5C 269.914,122.291 269.414,121.957 269,121.5C 268.502,118.183 268.335,114.85 268.5,111.5 Z"/></g>
<g><path style="opacity:1" fill="#32587e" d="M 127.5,109.5 C 130.749,113.453 131.916,118.12 131,123.5C 129.152,118.228 127.152,118.228 125,123.5C 125.091,118.719 125.924,114.052 127.5,109.5 Z"/></g>
<g><path style="opacity:1" fill="#cbd6df" d="M 127.5,112.5 C 129.105,114.308 129.439,116.308 128.5,118.5C 127.534,116.604 127.201,114.604 127.5,112.5 Z"/></g>
<g><path style="opacity:1" fill="#3b5f84" d="M 135.5,109.5 C 136.978,109.238 138.311,109.571 139.5,110.5C 134.334,112.759 133.167,116.426 136,121.5C 137.067,122.191 138.234,122.691 139.5,123C 138.594,124.699 138.261,126.533 138.5,128.5C 135.282,128.349 134.949,127.516 137.5,126C 133.044,120.939 132.378,115.439 135.5,109.5 Z"/></g>
<g><path style="opacity:1" fill="#2f567c" d="M 144.5,109.5 C 145.75,109.577 146.583,110.244 147,111.5C 147.353,115.117 148.186,118.617 149.5,122C 149.167,122.5 148.833,123 148.5,123.5C 147.571,122.311 147.238,120.978 147.5,119.5C 146.167,119.5 144.833,119.5 143.5,119.5C 143.762,120.978 143.429,122.311 142.5,123.5C 142.167,123 141.833,122.5 141.5,122C 142.148,120.56 142.481,119.06 142.5,117.5C 143.708,118.234 145.041,118.567 146.5,118.5C 146.587,115.261 145.92,112.261 144.5,109.5 Z"/></g>
<g><path style="opacity:1" fill="#355a80" d="M 172.5,109.5 C 173.5,109.5 174.5,109.5 175.5,109.5C 175.414,113.318 176.081,116.984 177.5,120.5C 176.714,124.12 176.048,123.787 175.5,119.5C 172.95,119.561 171.45,120.894 171,123.5C 170.948,118.801 171.448,114.134 172.5,109.5 Z"/></g>
<g><path style="opacity:1" fill="#c5d1dc" d="M 173.5,112.5 C 174.306,113.997 174.972,115.664 175.5,117.5C 174.5,118.833 173.5,118.833 172.5,117.5C 173.309,115.929 173.643,114.262 173.5,112.5 Z"/></g>
<g><path style="opacity:1" fill="#33587e" d="M 190.5,109.5 C 191.5,109.5 192.5,109.5 193.5,109.5C 194.466,114.148 194.966,118.814 195,123.5C 193,118.167 191,118.167 189,123.5C 188.951,118.798 189.451,114.131 190.5,109.5 Z"/></g>
<g><path style="opacity:1" fill="#cdd7e0" d="M 191.5,112.5 C 192.793,114.364 192.793,116.364 191.5,118.5C 191.08,116.674 191.08,114.674 191.5,112.5 Z"/></g>
<g><path style="opacity:1" fill="#2d557b" d="M 234.5,113.5 C 234.955,116.203 235.622,118.87 236.5,121.5C 236.167,122.167 235.833,122.833 235.5,123.5C 234.571,122.311 234.238,120.978 234.5,119.5C 233.167,119.5 231.833,119.5 230.5,119.5C 230.762,120.978 230.429,122.311 229.5,123.5C 228.948,121.997 228.948,120.331 229.5,118.5C 230.833,118.5 232.167,118.5 233.5,118.5C 233.216,116.585 233.549,114.919 234.5,113.5 Z"/></g>
<g><path style="opacity:1" fill="#355d82" d="M 202.5,109.5 C 205.238,108.965 207.072,109.965 208,112.5C 209.407,117.367 208.24,121.367 204.5,124.5C 200.76,121.367 199.593,117.367 201,112.5C 201.513,111.473 202.013,110.473 202.5,109.5 Z"/></g>
<g><path style="opacity:1" fill="#eff2f5" d="M 202.5,111.5 C 203.822,111.33 204.989,111.663 206,112.5C 206.667,115.5 206.667,118.5 206,121.5C 205,122.833 204,122.833 203,121.5C 202.502,118.183 202.335,114.85 202.5,111.5 Z"/></g>
<g><path style="opacity:1" fill="#f8b5b7" d="M 296.5,153.5 C 265.833,152.167 235.167,152.167 204.5,153.5C 203.957,153.44 203.624,153.107 203.5,152.5C 234.833,151.167 266.167,151.167 297.5,152.5C 297.376,153.107 297.043,153.44 296.5,153.5 Z"/></g>
<g><path style="opacity:1" fill="#ed2026" d="M 296.5,153.5 C 282.833,177.5 269.167,201.5 255.5,225.5C 254.662,225.842 254.328,226.508 254.5,227.5C 253.685,228.429 252.852,229.429 252,230.5C 250.811,228.767 249.644,227.1 248.5,225.5C 233.833,201.5 219.167,177.5 204.5,153.5C 235.167,152.167 265.833,152.167 296.5,153.5 Z"/></g>
<g><path style="opacity:1" fill="#fdf1ed" d="M 139.5,153.5 C 149.413,161.909 158.913,170.909 168,180.5C 168.464,181.094 168.631,181.761 168.5,182.5C 168.667,195.837 168.5,209.171 168,222.5C 166.913,209.715 166.08,197.049 165.5,184.5C 157.063,175.562 148.396,166.728 139.5,158C 126.5,157.333 113.5,157.333 100.5,158C 92,166.5 83.5,175 75,183.5C 74.8333,189.667 74.6667,195.833 74.5,202C 74.3696,208.935 74.8696,215.768 76,222.5C 84.4211,231.426 93.2544,239.759 102.5,247.5C 113.993,248.331 125.659,248.831 137.5,249C 124.85,249.96 112.183,250.46 99.5,250.5C 90.2016,241.702 81.035,232.702 72,223.5C 71.5001,209.504 71.3334,195.504 71.5,181.5C 81.0186,172.481 90.352,163.314 99.5,154C 112.829,153.5 126.163,153.333 139.5,153.5 Z"/></g>
<g><path style="opacity:1" fill="#ed2026" d="M 165.5,184.5 C 165.667,196.838 165.5,209.171 165,221.5C 156.5,230 148,238.5 139.5,247C 127.171,247.5 114.838,247.667 102.5,247.5C 93.2544,239.759 84.4211,231.426 76,222.5C 74.8696,215.768 74.3696,208.935 74.5,202C 74.6667,195.833 74.8333,189.667 75,183.5C 83.5,175 92,166.5 100.5,158C 113.5,157.333 126.5,157.333 139.5,158C 148.396,166.728 157.063,175.562 165.5,184.5 Z"/></g>
<g><path style="opacity:1" fill="#fff7df" d="M 307.5,156.5 C 325.867,161.577 344.2,166.91 362.5,172.5C 362.5,174.833 362.5,177.167 362.5,179.5C 356.017,178.451 349.683,176.784 343.5,174.5C 342.914,174.709 342.414,175.043 342,175.5C 334.693,173.114 327.693,170.781 321,168.5C 320.667,168.833 320.333,169.167 320,169.5C 315.687,169.034 311.354,167.7 307,165.5C 306.667,165.833 306.333,166.167 306,166.5C 305.292,165.619 304.458,164.953 303.5,164.5C 304.472,161.563 305.805,158.897 307.5,156.5 Z"/></g>
<g><path style="opacity:1" fill="#fffaed" d="M 362.5,162.5 C 362.5,165.833 362.5,169.167 362.5,172.5C 344.2,166.91 325.867,161.577 307.5,156.5C 308.804,152.207 311.304,148.873 315,146.5C 327.832,150.777 340.499,155.443 353,160.5C 353.333,160.167 353.667,159.833 354,159.5C 356.492,161.497 359.325,162.497 362.5,162.5 Z"/></g>
<g><path style="opacity:1" fill="#ed353b" d="M 139.5,153.5 C 139.842,152.662 140.508,152.328 141.5,152.5C 151.132,161.631 160.632,170.964 170,180.5C 170.667,195.167 170.667,209.833 170,224.5C 168.955,225.373 168.122,226.373 167.5,227.5C 158.833,235.833 150.167,244.167 141.5,252.5C 140.209,252.737 139.209,252.404 138.5,251.5C 139.922,251.291 141.255,250.791 142.5,250C 151.333,241.167 160.167,232.333 169,223.5C 169.827,209.66 169.661,195.994 168.5,182.5C 168.631,181.761 168.464,181.094 168,180.5C 158.913,170.909 149.413,161.909 139.5,153.5 Z"/></g>
<g><path style="opacity:1" fill="#f25958" d="M 141.5,152.5 C 140.508,152.328 139.842,152.662 139.5,153.5C 126.163,153.333 112.829,153.5 99.5,154C 90.352,163.314 81.0186,172.481 71.5,181.5C 71.5,180.833 71.1667,180.5 70.5,180.5C 79.6614,170.505 89.3281,161.005 99.5,152C 113.673,151.173 127.673,151.339 141.5,152.5 Z"/></g>
<g><path style="opacity:1" fill="#fefafa" d="M 230.5,166.5 C 244.339,165.174 258.339,165.174 272.5,166.5C 266.005,178.828 259.005,190.828 251.5,202.5C 244.473,190.437 237.473,178.437 230.5,166.5 Z"/></g>
<g><path style="opacity:1" fill="#fff3ce" d="M 303.5,164.5 C 304.458,164.953 305.292,165.619 306,166.5C 306.333,166.167 306.667,165.833 307,165.5C 311.354,167.7 315.687,169.034 320,169.5C 320.333,169.167 320.667,168.833 321,168.5C 327.693,170.781 334.693,173.114 342,175.5C 342.414,175.043 342.914,174.709 343.5,174.5C 349.683,176.784 356.017,178.451 362.5,179.5C 362.5,184.167 362.5,188.833 362.5,193.5C 355.866,192.48 349.033,191.147 342,189.5C 340.049,190.915 338.382,190.581 337,188.5C 335.699,188.96 334.366,189.294 333,189.5C 326.722,187.178 320.389,186.178 314,186.5C 312,185.833 310,185.167 308,184.5C 307.586,184.957 307.086,185.291 306.5,185.5C 303.009,183.906 299.342,183.239 295.5,183.5C 297.39,176.733 300.057,170.4 303.5,164.5 Z"/></g>
<g><path style="opacity:1" fill="#fff0c0" d="M 295.5,183.5 C 299.342,183.239 303.009,183.906 306.5,185.5C 307.086,185.291 307.586,184.957 308,184.5C 310,185.167 312,185.833 314,186.5C 320.389,186.178 326.722,187.178 333,189.5C 334.366,189.294 335.699,188.96 337,188.5C 338.382,190.581 340.049,190.915 342,189.5C 349.033,191.147 355.866,192.48 362.5,193.5C 362.5,196.833 362.5,200.167 362.5,203.5C 358.528,202.892 354.528,202.392 350.5,202C 350,201.5 349.5,201 349,200.5C 342.045,201.64 334.879,201.307 327.5,199.5C 325.613,201.133 324.113,200.8 323,198.5C 320.177,199.367 317.177,199.701 314,199.5C 311.874,197.935 309.708,197.601 307.5,198.5C 304.917,198.019 302.417,197.352 300,196.5C 297.118,197.069 293.952,197.402 290.5,197.5C 291.653,192.552 293.32,187.885 295.5,183.5 Z"/></g>
<g><path style="opacity:1" fill="#fdf1ed" d="M 81.5,191.5 C 85.1817,191.335 88.8484,191.501 92.5,192C 97.218,193.449 98.718,196.615 97,201.5C 96.6258,202.416 96.1258,203.25 95.5,204C 92.3117,205.316 88.9783,205.816 85.5,205.5C 85.5,208.167 85.5,210.833 85.5,213.5C 84.1667,213.5 82.8333,213.5 81.5,213.5C 81.5,206.167 81.5,198.833 81.5,191.5 Z"/></g>
<g><path style="opacity:1" fill="#fdf2ee" d="M 121.5,191.5 C 125.182,191.335 128.848,191.501 132.5,192C 138.124,192.79 139.957,195.957 138,201.5C 136.513,202.155 135.347,203.155 134.5,204.5C 136.623,207.246 138.623,210.079 140.5,213C 138.833,213.667 137.167,213.667 135.5,213C 133.833,210.667 132.167,208.333 130.5,206C 128.975,204.991 127.308,204.491 125.5,204.5C 125.5,207.5 125.5,210.5 125.5,213.5C 124.167,213.5 122.833,213.5 121.5,213.5C 121.5,206.167 121.5,198.833 121.5,191.5 Z"/></g>
<g><path style="opacity:1" fill="#fdece9" d="M 105.5,191.5 C 107.288,191.215 108.955,191.548 110.5,192.5C 113.167,199.167 115.833,205.833 118.5,212.5C 116.955,213.452 115.288,213.785 113.5,213.5C 114.091,209.259 112.258,207.593 108,208.5C 104.167,207.673 102,209.173 101.5,213C 100.207,213.49 98.8734,213.657 97.5,213.5C 99.5725,205.949 102.239,198.616 105.5,191.5 Z"/></g>
<g><path style="opacity:1" fill="#fdf3f0" d="M 159.5,192.5 C 159.5,193.5 159.5,194.5 159.5,195.5C 155.833,195.5 152.167,195.5 148.5,195.5C 148.5,197.167 148.5,198.833 148.5,200.5C 151.833,200.5 155.167,200.5 158.5,200.5C 158.5,201.5 158.5,202.5 158.5,203.5C 154.958,203.187 151.625,203.521 148.5,204.5C 148.5,206.5 148.5,208.5 148.5,210.5C 152.5,210.5 156.5,210.5 160.5,210.5C 160.5,211.5 160.5,212.5 160.5,213.5C 155.167,213.5 149.833,213.5 144.5,213.5C 144.5,206.5 144.5,199.5 144.5,192.5C 149.5,192.5 154.5,192.5 159.5,192.5 Z"/></g>
<g><path style="opacity:1" fill="#ed262b" d="M 85.5,195.5 C 88.9079,194.828 91.5745,195.828 93.5,198.5C 91.5745,201.172 88.9079,202.172 85.5,201.5C 85.5,199.5 85.5,197.5 85.5,195.5 Z"/></g>
<g><path style="opacity:1" fill="#ed282c" d="M 125.5,195.5 C 127.857,195.337 130.19,195.503 132.5,196C 134.592,196.953 134.925,198.286 133.5,200C 130.854,200.497 128.187,200.664 125.5,200.5C 125.5,198.833 125.5,197.167 125.5,195.5 Z"/></g>
<g><path style="opacity:1" fill="#f8b1af" d="M 159.5,192.5 C 154.5,192.5 149.5,192.5 144.5,192.5C 144.5,199.5 144.5,206.5 144.5,213.5C 143.508,206.352 143.175,199.019 143.5,191.5C 149.026,191.179 154.36,191.512 159.5,192.5 Z"/></g>
<g><path style="opacity:1" fill="#ee3233" d="M 107.5,197.5 C 109.163,199.438 109.829,201.772 109.5,204.5C 108.167,204.5 106.833,204.5 105.5,204.5C 105.878,202.079 106.545,199.746 107.5,197.5 Z"/></g>
<g><path style="opacity:1" fill="#f69898" d="M 158.5,200.5 C 159.434,201.568 159.768,202.901 159.5,204.5C 155.833,204.5 152.167,204.5 148.5,204.5C 151.625,203.521 154.958,203.187 158.5,203.5C 158.5,202.5 158.5,201.5 158.5,200.5 Z"/></g>
<g><path style="opacity:1" fill="#ffeeb2" d="M 362.5,203.5 C 362.5,208.833 362.5,214.167 362.5,219.5C 360.661,220.752 358.828,220.752 357,219.5C 356,220.167 355,220.833 354,221.5C 345.455,220.408 336.622,220.408 327.5,221.5C 325.726,221.113 324.059,220.447 322.5,219.5C 318.714,220.246 314.881,221.246 311,222.5C 306.53,222.512 301.864,222.179 297,221.5C 294.745,222.042 292.912,223.209 291.5,225C 289.187,225.662 286.854,226.162 284.5,226.5C 284.737,227.791 284.404,228.791 283.5,229.5C 284.832,218.493 287.166,207.827 290.5,197.5C 293.952,197.402 297.118,197.069 300,196.5C 302.417,197.352 304.917,198.019 307.5,198.5C 309.708,197.601 311.874,197.935 314,199.5C 317.177,199.701 320.177,199.367 323,198.5C 324.113,200.8 325.613,201.133 327.5,199.5C 334.879,201.307 342.045,201.64 349,200.5C 349.5,201 350,201.5 350.5,202C 354.528,202.392 358.528,202.892 362.5,203.5 Z"/></g>
<g><path style="opacity:1" fill="#fce0dd" d="M 168.5,182.5 C 169.661,195.994 169.827,209.66 169,223.5C 160.167,232.333 151.333,241.167 142.5,250C 141.255,250.791 139.922,251.291 138.5,251.5C 126.167,251.5 113.833,251.5 101.5,251.5C 100.508,251.672 99.8417,251.338 99.5,250.5C 112.183,250.46 124.85,249.96 137.5,249C 125.659,248.831 113.993,248.331 102.5,247.5C 114.838,247.667 127.171,247.5 139.5,247C 148,238.5 156.5,230 165,221.5C 165.5,209.171 165.667,196.838 165.5,184.5C 166.08,197.049 166.913,209.715 168,222.5C 168.5,209.171 168.667,195.837 168.5,182.5 Z"/></g>
<g><path style="opacity:1" fill="#fee99f" d="M 362.5,219.5 C 362.5,226.5 362.5,233.5 362.5,240.5C 359.99,242.773 357.324,242.773 354.5,240.5C 351.557,241.244 348.557,241.744 345.5,242C 344.667,243.5 343.5,244.667 342,245.5C 340.171,245.435 338.338,245.102 336.5,244.5C 329.702,238.203 323.035,231.703 316.5,225C 312.619,222.464 309.952,223.298 308.5,227.5C 308.5,228.167 308.167,228.5 307.5,228.5C 306.761,228.369 306.094,228.536 305.5,229C 298.904,235.09 292.904,241.59 287.5,248.5C 286.5,250.167 285.167,251.5 283.5,252.5C 282.833,252.5 282.167,252.5 281.5,252.5C 282.043,244.803 282.71,237.136 283.5,229.5C 284.404,228.791 284.737,227.791 284.5,226.5C 286.854,226.162 289.187,225.662 291.5,225C 292.912,223.209 294.745,222.042 297,221.5C 301.864,222.179 306.53,222.512 311,222.5C 314.881,221.246 318.714,220.246 322.5,219.5C 324.059,220.447 325.726,221.113 327.5,221.5C 336.622,220.408 345.455,220.408 354,221.5C 355,220.833 356,220.167 357,219.5C 358.828,220.752 360.661,220.752 362.5,219.5 Z"/></g>
<g><path style="opacity:1" fill="#e4bd2b" d="M 336.5,244.5 C 345.194,253.527 353.861,262.527 362.5,271.5C 362.5,272.5 362.5,273.5 362.5,274.5C 361.5,275.167 360.5,275.833 359.5,276.5C 360.323,274.545 360.49,272.545 360,270.5C 345.167,255.667 330.333,240.833 315.5,226C 312.829,225.167 310.496,225.667 308.5,227.5C 309.952,223.298 312.619,222.464 316.5,225C 323.035,231.703 329.702,238.203 336.5,244.5 Z"/></g>
<g><path style="opacity:1" fill="#dbb734" d="M 240.5,276.5 C 240.167,276.5 239.833,276.5 239.5,276.5C 239.66,274.801 239.494,273.134 239,271.5C 224.167,256.667 209.333,241.833 194.5,227C 192.833,226.333 191.167,226.333 189.5,227C 174.667,241.833 159.833,256.667 145,271.5C 144.333,273.167 144.333,274.833 145,276.5C 159.702,291.035 174.202,305.701 188.5,320.5C 184.562,317.902 180.895,314.902 177.5,311.5C 170.833,304.167 163.833,297.167 156.5,290.5C 152.537,286.036 148.37,281.702 144,277.5C 142.813,275.956 142.48,274.289 143,272.5C 154.673,259.994 166.506,247.661 178.5,235.5C 181.964,232.538 185.297,229.371 188.5,226C 190.365,224.699 192.365,224.365 194.5,225C 209.667,240.167 224.833,255.333 240,270.5C 241.612,272.456 241.778,274.456 240.5,276.5 Z"/></g>
<g><path style="opacity:1" fill="#cfac28" d="M 73.5,245.5 C 81.7977,254.298 90.2977,262.965 99,271.5C 101.298,275.106 100.465,277.773 96.5,279.5C 98.1004,277.429 98.6004,275.095 98,272.5C 82.8333,257.333 67.6667,242.167 52.5,227C 51.0715,226.421 49.7382,226.588 48.5,227.5C 48.1667,227.5 47.8333,227.5 47.5,227.5C 49.0106,225.559 51.0106,225.059 53.5,226C 60.0352,232.703 66.7018,239.203 73.5,245.5 Z"/></g>
<g><path style="opacity:1" fill="#f04f4f" d="M 70.5,180.5 C 71.1667,180.5 71.5,180.833 71.5,181.5C 71.3334,195.504 71.5001,209.504 72,223.5C 81.035,232.702 90.2016,241.702 99.5,250.5C 99.8417,251.338 100.508,251.672 101.5,251.5C 101.158,252.338 100.492,252.672 99.5,252.5C 98.5266,252.013 97.5266,251.513 96.5,251C 88.6616,241.995 80.3282,233.495 71.5,225.5C 71.2172,224.711 70.7172,224.044 70,223.5C 69.1851,209.092 69.3517,194.759 70.5,180.5 Z"/></g>
<g><path style="opacity:1" fill="#fac704" d="M 320.5,311.5 C 318.371,315.165 315.371,317.332 311.5,318C 297,303.5 282.5,289 268,274.5C 267.333,273.5 267.333,272.5 268,271.5C 270.705,268.964 273.205,266.297 275.5,263.5C 287.84,251.327 300.34,239.327 313,227.5C 328.812,241.978 343.978,257.145 358.5,273C 345.659,285.675 332.992,298.508 320.5,311.5 Z"/></g>
<g><path style="opacity:1" fill="#2d292b" d="M 248.5,225.5 C 249.644,227.1 250.811,228.767 252,230.5C 252.852,229.429 253.685,228.429 254.5,227.5C 254.5,288.5 254.5,349.5 254.5,410.5C 252.5,410.5 250.5,410.5 248.5,410.5C 248.5,381.167 248.5,351.833 248.5,322.5C 248.5,290.167 248.5,257.833 248.5,225.5 Z"/></g>
<g><path style="opacity:1" fill="#bb9813" d="M 307.5,228.5 C 301.167,235.5 294.5,242.167 287.5,248.5C 292.904,241.59 298.904,235.09 305.5,229C 306.094,228.536 306.761,228.369 307.5,228.5 Z"/></g>
<g><path style="opacity:1" fill="#fee68c" d="M 362.5,240.5 C 362.5,250.833 362.5,261.167 362.5,271.5C 353.861,262.527 345.194,253.527 336.5,244.5C 338.338,245.102 340.171,245.435 342,245.5C 343.5,244.667 344.667,243.5 345.5,242C 348.557,241.744 351.557,241.244 354.5,240.5C 357.324,242.773 359.99,242.773 362.5,240.5 Z"/></g>
<g><path style="opacity:1" fill="#332b1e" d="M 96.5,279.5 C 95.1667,279.5 94.5,280.167 94.5,281.5C 90.5,283.5 87.5,286.5 85.5,290.5C 83.1667,290.833 81.8333,292.167 81.5,294.5C 80.5,294.833 79.8333,295.5 79.5,296.5C 76.1667,297.833 73.8333,300.167 72.5,303.5C 69.5,304.5 67.5,306.5 66.5,309.5C 62.8815,312.452 59.5481,315.785 56.5,319.5C 54.1175,321.046 51.4509,321.713 48.5,321.5C 45.5,318.833 42.5,316.167 39.5,313.5C 37.5,310.833 35.1667,308.5 32.5,306.5C 31.8333,305.167 30.8333,304.167 29.5,303.5C 21.2023,294.702 12.7023,286.035 4,277.5C 3.50649,275.866 3.33982,274.199 3.5,272.5C 18.8333,257.833 33.8333,242.833 48.5,227.5C 49.7382,226.588 51.0715,226.421 52.5,227C 67.6667,242.167 82.8333,257.333 98,272.5C 98.6004,275.095 98.1004,277.429 96.5,279.5 Z"/></g>
<g><path style="opacity:1" fill="#f9c604" d="M 49.5,229.5 C 50.552,229.351 51.552,229.517 52.5,230C 67.3474,244.681 82.0141,259.514 96.5,274.5C 81.5141,289.986 66.3474,305.319 51,320.5C 35.6526,305.319 20.4859,289.986 5.5,274.5C 19.5723,258.763 34.2389,243.763 49.5,229.5 Z"/></g>
<g><path style="opacity:1" fill="#ea595f" d="M 101.5,251.5 C 113.833,251.5 126.167,251.5 138.5,251.5C 139.209,252.404 140.209,252.737 141.5,252.5C 135.355,253.49 129.022,253.823 122.5,253.5C 120.5,253.5 118.5,253.5 116.5,253.5C 116.167,253.5 115.833,253.5 115.5,253.5C 109.974,253.821 104.64,253.488 99.5,252.5C 100.492,252.672 101.158,252.338 101.5,251.5 Z"/></g>
<g><path style="opacity:1" fill="#ecf6fa" d="M 71.5,225.5 C 80.3282,233.495 88.6616,241.995 96.5,251C 97.5266,251.513 98.5266,252.013 99.5,252.5C 104.64,253.488 109.974,253.821 115.5,253.5C 115.667,265.838 115.5,278.171 115,290.5C 114.416,285.826 113.916,281.826 113.5,278.5C 112.5,280.5 111.5,282.5 110.5,284.5C 111.167,285.167 111.833,285.833 112.5,286.5C 111.699,289.133 110.033,290.967 107.5,292C 108.576,293.726 108.743,295.559 108,297.5C 107.667,297.167 107.333,296.833 107,296.5C 104.651,298.744 105.151,299.911 108.5,300C 107.167,300.667 107.167,301.333 108.5,302C 105.8,302.949 104.967,304.783 106,307.5C 106.423,306.044 107.256,305.544 108.5,306C 106.11,310.508 104.443,315.008 103.5,319.5C 102.87,322.316 103.536,324.982 105.5,327.5C 105.154,328.696 104.654,328.696 104,327.5C 103.28,329.112 103.446,330.612 104.5,332C 103.833,332.333 103.167,332.667 102.5,333C 103.621,335.665 104.288,338.165 104.5,340.5C 102.567,342.572 102.567,344.905 104.5,347.5C 103.833,349.167 103.167,350.833 102.5,352.5C 103.025,353.192 103.692,353.692 104.5,354C 103.266,357.781 103.266,361.614 104.5,365.5C 104.471,367.029 103.804,368.196 102.5,369C 103.833,371 103.833,373 102.5,375C 103.794,377.09 104.794,379.09 105.5,381C 103.043,382.512 103.043,383.846 105.5,385C 104.228,387.044 104.561,388.878 106.5,390.5C 107.057,397.002 107.057,403.669 106.5,410.5C 97.8333,410.5 89.1667,410.5 80.5,410.5C 78.6715,409.226 78.3381,407.726 79.5,406C 79.1377,404.775 78.6377,403.609 78,402.5C 77.6667,403.167 77.3333,403.833 77,404.5C 76.3486,402.765 76.5153,401.098 77.5,399.5C 76.8848,397.884 75.8848,396.551 74.5,395.5C 74.9275,392.986 75.2608,390.486 75.5,388C 74.5133,386.332 73.5133,385.165 72.5,384.5C 73.1853,381.74 73.5186,379.073 73.5,376.5C 73.263,373.937 72.763,373.937 72,376.5C 71.2797,374.888 71.4464,373.388 72.5,372C 71.9389,370.324 70.9389,368.991 69.5,368C 70.1667,367.667 70.8333,367.333 71.5,367C 70.1083,362.459 69.1083,357.959 68.5,353.5C 69.3898,352.045 69.3898,350.711 68.5,349.5C 69.1667,348.833 69.8333,348.167 70.5,347.5C 70.1543,346.304 69.6543,346.304 69,347.5C 68.3828,346.551 68.5494,345.718 69.5,345C 68.3279,344.581 67.3279,343.915 66.5,343C 67.5742,342.261 68.2409,341.261 68.5,340C 65.6026,335.957 65.2693,331.791 67.5,327.5C 66.9747,326.808 66.3081,326.308 65.5,326C 66.4124,323.094 65.7457,320.427 63.5,318C 65.8418,316.608 65.8418,315.775 63.5,315.5C 64.6496,313.603 65.6496,311.603 66.5,309.5C 68.8333,307.833 70.8333,305.833 72.5,303.5C 75.1667,301.5 77.5,299.167 79.5,296.5C 79.8333,295.5 80.5,294.833 81.5,294.5C 83.1667,293.5 84.5,292.167 85.5,290.5C 88.8333,287.833 91.8333,284.833 94.5,281.5C 94.5,280.167 95.1667,279.5 96.5,279.5C 100.465,277.773 101.298,275.106 99,271.5C 90.2977,262.965 81.7977,254.298 73.5,245.5C 77.1604,243.795 77.4937,241.462 74.5,238.5C 73.6043,239.506 72.9377,239.506 72.5,238.5C 74.3469,237.17 75.8469,237.503 77,239.5C 77.3742,238.584 77.8742,237.75 78.5,237C 76.6061,235.899 75.9394,234.566 76.5,233C 73.8002,231.143 72.1335,228.643 71.5,225.5 Z"/></g>
<g><path style="opacity:1" fill="#282425" d="M 116.5,253.5 C 118.5,253.5 120.5,253.5 122.5,253.5C 122.5,305.833 122.5,358.167 122.5,410.5C 120.5,410.5 118.5,410.5 116.5,410.5C 116.5,358.167 116.5,305.833 116.5,253.5 Z"/></g>
<g><path style="opacity:1" fill="#352c1e" d="M 359.5,276.5 C 347.167,288.5 334.833,300.5 322.5,312.5C 322.158,311.662 321.492,311.328 320.5,311.5C 332.992,298.508 345.659,285.675 358.5,273C 343.978,257.145 328.812,241.978 313,227.5C 300.34,239.327 287.84,251.327 275.5,263.5C 275.5,262.833 275.167,262.5 274.5,262.5C 277.5,259.167 280.5,255.833 283.5,252.5C 285.167,251.5 286.5,250.167 287.5,248.5C 294.5,242.167 301.167,235.5 307.5,228.5C 308.167,228.5 308.5,228.167 308.5,227.5C 310.496,225.667 312.829,225.167 315.5,226C 330.333,240.833 345.167,255.667 360,270.5C 360.49,272.545 360.323,274.545 359.5,276.5 Z"/></g>
<g><path style="opacity:1" fill="#9e8117" d="M 47.5,227.5 C 47.8333,227.5 48.1667,227.5 48.5,227.5C 33.8333,242.833 18.8333,257.833 3.5,272.5C 3.5,272.167 3.5,271.833 3.5,271.5C 17.8333,256.5 32.5,241.833 47.5,227.5 Z"/></g>
<g><path style="opacity:1" fill="#735d15" d="M 331.5,267.5 C 329.833,267.5 328.167,267.5 326.5,267.5C 325.911,271.971 326.577,275.971 328.5,279.5C 327.791,280.404 326.791,280.737 325.5,280.5C 325.5,275.833 325.5,271.167 325.5,266.5C 327.735,266.205 329.735,266.539 331.5,267.5 Z"/></g>
<g><path style="opacity:1" fill="#382f1d" d="M 63.5,268.5 C 64.5,268.5 65.5,268.5 66.5,268.5C 66.5,272.833 66.5,277.167 66.5,281.5C 65.5,281.5 64.5,281.5 63.5,281.5C 63.5,277.167 63.5,272.833 63.5,268.5 Z"/></g>
<g><path style="opacity:1" fill="#68541a" d="M 299.5,267.5 C 298.325,267.281 297.325,267.614 296.5,268.5C 298.534,270.599 298.868,272.932 297.5,275.5C 296.83,273.709 296.163,272.042 295.5,270.5C 295.5,269.167 295.5,267.833 295.5,266.5C 297.099,266.232 298.432,266.566 299.5,267.5 Z"/></g>
<g><path style="opacity:1" fill="#2a241e" d="M 313.5,270.5 C 313.665,273.518 313.498,276.518 313,279.5C 312.778,275.944 311.944,272.611 310.5,269.5C 310.5,268.5 310.5,267.5 310.5,266.5C 311.5,266.5 312.5,266.5 313.5,266.5C 313.5,267.833 313.5,269.167 313.5,270.5 Z"/></g>
<g><path style="opacity:1" fill="#342c1d" d="M 30.5,268.5 C 32.604,268.201 34.604,268.534 36.5,269.5C 35.675,270.386 34.675,270.719 33.5,270.5C 33.5,271.5 33.5,272.5 33.5,273.5C 37.5,274.167 37.5,274.833 33.5,275.5C 33.5,276.833 33.5,278.167 33.5,279.5C 34.675,279.281 35.675,279.614 36.5,280.5C 34.604,281.466 32.604,281.799 30.5,281.5C 30.5,277.167 30.5,272.833 30.5,268.5 Z"/></g>
<g><path style="opacity:1" fill="#3a301d" d="M 46.5,268.5 C 51.9933,267.178 54.4933,269.178 54,274.5C 50.5439,275.548 49.0439,277.881 49.5,281.5C 48.5,281.5 47.5,281.5 46.5,281.5C 46.5,277.167 46.5,272.833 46.5,268.5 Z"/></g>
<g><path style="opacity:1" fill="#28231f" d="M 67.5,268.5 C 69.924,268.192 72.2573,268.526 74.5,269.5C 72.986,273.303 71.986,277.303 71.5,281.5C 70.5108,277.893 70.1774,274.226 70.5,270.5C 68.8212,270.715 67.8212,270.048 67.5,268.5 Z"/></g>
<g><path style="opacity:1" fill="#2f271e" d="M 309.5,272.5 C 309.833,272.5 310.167,272.5 310.5,272.5C 309.167,281.833 307.833,281.833 306.5,272.5C 306.44,271.957 306.107,271.624 305.5,271.5C 304.682,274.107 304.182,276.774 304,279.5C 303.505,277.527 303.338,275.527 303.5,273.5C 303.5,271.167 303.5,268.833 303.5,266.5C 304.5,266.5 305.5,266.5 306.5,266.5C 306.687,268.564 307.187,270.564 308,272.5C 308.69,273.738 309.19,273.738 309.5,272.5 Z"/></g>
<g><path style="opacity:1" fill="#d2a90b" d="M 49.5,270.5 C 50.5862,270.62 51.2528,271.287 51.5,272.5C 51.1667,273.167 50.8333,273.833 50.5,274.5C 49.5713,273.311 49.238,271.978 49.5,270.5 Z"/></g>
<g><path style="opacity:1" fill="#665319" d="M 310.5,269.5 C 311.944,272.611 312.778,275.944 313,279.5C 313.498,276.518 313.665,273.518 313.5,270.5C 314.479,273.625 314.813,276.958 314.5,280.5C 313.5,280.5 312.5,280.5 311.5,280.5C 311.806,277.615 311.473,274.948 310.5,272.5C 310.167,272.5 309.833,272.5 309.5,272.5C 309.263,271.209 309.596,270.209 310.5,269.5 Z"/></g>
<g><path style="opacity:1" fill="#deeef6" d="M 167.5,227.5 C 171.707,229.435 175.373,232.102 178.5,235.5C 166.506,247.661 154.673,259.994 143,272.5C 142.48,274.289 142.813,275.956 144,277.5C 148.37,281.702 152.537,286.036 156.5,290.5C 154.391,289.597 152.391,288.763 150.5,288C 151.41,290.91 150.743,293.577 148.5,296C 149.5,296.333 150.5,296.667 151.5,297C 150.355,299.418 148.855,301.585 147,303.5C 146.691,304.766 146.191,305.933 145.5,307C 146.108,309.184 145.441,311.184 143.5,313C 144.516,313.519 145.182,314.353 145.5,315.5C 144.216,319.98 142.549,323.814 140.5,327C 141.167,327.333 141.833,327.667 142.5,328C 141.707,329.085 141.04,330.252 140.5,331.5C 140.566,334.7 140.566,337.867 140.5,341C 139.09,341.368 138.09,342.201 137.5,343.5C 139.769,346.449 139.769,349.282 137.5,352C 139.261,356.167 139.261,360.167 137.5,364C 138.884,365.957 138.217,366.957 135.5,367C 136.448,367.483 137.448,367.649 138.5,367.5C 138.52,369.143 137.853,370.476 136.5,371.5C 137.738,377.594 137.738,383.761 136.5,390C 136.482,392.379 137.149,394.546 138.5,396.5C 137.483,399.028 136.316,399.028 135,396.5C 134.493,397.996 134.993,399.163 136.5,400C 136.167,400.333 135.833,400.667 135.5,401C 136.738,400.923 137.738,401.089 138.5,401.5C 135.655,404.447 135.321,407.447 137.5,410.5C 132.5,410.5 127.5,410.5 122.5,410.5C 122.5,358.167 122.5,305.833 122.5,253.5C 129.022,253.823 135.355,253.49 141.5,252.5C 150.167,244.167 158.833,235.833 167.5,227.5 Z"/></g>
<g><path style="opacity:1" fill="#3b311e" d="M 318.5,266.5 C 322.629,266.965 324.629,269.299 324.5,273.5C 324.823,277.009 323.323,279.343 320,280.5C 315.859,277.992 314.525,274.326 316,269.5C 317.045,268.627 317.878,267.627 318.5,266.5 Z"/></g>
<g><path style="opacity:1" fill="#e7ba07" d="M 319.5,268.5 C 320.117,268.611 320.617,268.944 321,269.5C 321.89,272.706 321.557,275.706 320,278.5C 318.182,275.278 318.016,271.945 319.5,268.5 Z"/></g>
<g><path style="opacity:1" fill="#31291e" d="M 55.5,268.5 C 57.604,268.201 59.604,268.534 61.5,269.5C 60.675,270.386 59.675,270.719 58.5,270.5C 58.5,271.5 58.5,272.5 58.5,273.5C 62.5,274.167 62.5,274.833 58.5,275.5C 58.5,276.833 58.5,278.167 58.5,279.5C 59.675,279.281 60.675,279.614 61.5,280.5C 59.604,281.466 57.604,281.799 55.5,281.5C 55.5,277.167 55.5,272.833 55.5,268.5 Z"/></g>
<g><path style="opacity:1" fill="#342b1e" d="M 331.5,267.5 C 334.134,269.54 334.134,271.707 331.5,274C 334.066,276.5 334.066,278.5 331.5,280C 329.809,273.4 328.809,273.233 328.5,279.5C 326.577,275.971 325.911,271.971 326.5,267.5C 328.167,267.5 329.833,267.5 331.5,267.5 Z"/></g>
<g><path style="opacity:1" fill="#d3a909" d="M 328.5,268.5 C 329.586,268.62 330.253,269.287 330.5,270.5C 330.167,271.167 329.833,271.833 329.5,272.5C 328.571,271.311 328.238,269.978 328.5,268.5 Z"/></g>
<g><path style="opacity:1" fill="#2a241e" d="M 21.5,268.5 C 23.7925,268.244 25.9592,268.577 28,269.5C 27.5447,273.537 27.378,277.537 27.5,281.5C 25.6304,275.053 23.9637,275.053 22.5,281.5C 21.5078,277.217 21.1744,272.884 21.5,268.5 Z"/></g>
<g><path style="opacity:1" fill="#a98910" d="M 23.5,270.5 C 24.5,270.5 25.5,270.5 26.5,270.5C 26.7778,272.346 26.1112,273.68 24.5,274.5C 23.5713,273.311 23.238,271.978 23.5,270.5 Z"/></g>
<g><path style="opacity:1" fill="#30281e" d="M 39.5,268.5 C 45.373,268.598 45.7064,269.598 40.5,271.5C 41.4803,272.981 42.647,274.315 44,275.5C 45.4502,280.885 43.6169,282.552 38.5,280.5C 39.6888,279.571 41.0222,279.238 42.5,279.5C 42.3385,277.176 41.1718,275.509 39,274.5C 38.3224,272.402 38.4891,270.402 39.5,268.5 Z"/></g>
<g><path style="opacity:1" fill="#d3ae23" d="M 281.5,252.5 C 282.167,252.5 282.833,252.5 283.5,252.5C 280.5,255.833 277.5,259.167 274.5,262.5C 271.536,264.962 268.703,267.629 266,270.5C 265.333,272.167 265.333,273.833 266,275.5C 280.702,290.035 295.202,304.701 309.5,319.5C 301.22,312.557 293.22,305.224 285.5,297.5C 278.536,290.035 271.369,282.702 264,275.5C 263.333,273.833 263.333,272.167 264,270.5C 270.036,264.631 275.87,258.631 281.5,252.5 Z"/></g>
<g><path style="opacity:1" fill="#332a1f" d="M 299.5,267.5 C 299.954,270.865 300.62,274.198 301.5,277.5C 300.784,281.422 300.117,281.422 299.5,277.5C 298.167,277.5 296.833,277.5 295.5,277.5C 294.883,281.422 294.216,281.422 293.5,277.5C 293.886,275.068 294.553,272.734 295.5,270.5C 296.163,272.042 296.83,273.709 297.5,275.5C 298.868,272.932 298.534,270.599 296.5,268.5C 297.325,267.614 298.325,267.281 299.5,267.5 Z"/></g>
<g><path style="opacity:1" fill="#ebc641" d="M 3.5,271.5 C 3.5,271.833 3.5,272.167 3.5,272.5C 3.33982,274.199 3.50649,275.866 4,277.5C 12.7023,286.035 21.2023,294.702 29.5,303.5C 20.2544,295.759 11.4211,287.426 3,278.5C 0.875457,275.826 1.04212,273.493 3.5,271.5 Z"/></g>
<g><path style="opacity:1" fill="#362d1e" d="M 77.5,268.5 C 80.5468,267.855 82.7135,268.855 84,271.5C 84.7437,274.871 84.2437,278.037 82.5,281C 79.1735,281.97 77.0068,280.803 76,277.5C 75.2069,274.259 75.7069,271.259 77.5,268.5 Z"/></g>
<g><path style="opacity:1" fill="#e9bb06" d="M 79.5,270.5 C 80.7647,271.514 81.4313,273.014 81.5,275C 81.1667,276.5 80.8333,278 80.5,279.5C 78.215,276.822 77.8817,273.822 79.5,270.5 Z"/></g>
<g><path style="opacity:1" fill="#715b17" d="M 306.5,272.5 C 305.527,274.948 305.194,277.615 305.5,280.5C 304.5,280.5 303.5,280.5 302.5,280.5C 302.198,277.941 302.532,275.607 303.5,273.5C 303.338,275.527 303.505,277.527 304,279.5C 304.182,276.774 304.682,274.107 305.5,271.5C 306.107,271.624 306.44,271.957 306.5,272.5 Z"/></g>
<g><path style="opacity:1" fill="#c1a332" d="M 94.5,281.5 C 91.8333,284.833 88.8333,287.833 85.5,290.5C 87.5,286.5 90.5,283.5 94.5,281.5 Z"/></g>
<g><path style="opacity:1" fill="#bfe1f1" d="M 228.5,289.5 C 230.326,291.147 231.66,293.147 232.5,295.5C 230.704,296.794 228.704,297.794 226.5,298.5C 226.931,299.293 227.265,300.127 227.5,301C 226.711,302.626 225.711,304.126 224.5,305.5C 225.718,306.803 225.385,307.803 223.5,308.5C 224.025,309.192 224.692,309.692 225.5,310C 221.511,318.114 218.178,326.614 215.5,335.5C 215.876,339.49 214.876,343.323 212.5,347C 213.022,347.561 213.355,348.228 213.5,349C 210.799,351.401 209.132,354.401 208.5,358C 209.303,361.33 209.303,364.497 208.5,367.5C 206.125,370.413 204.125,373.58 202.5,377C 203.552,378.716 202.886,379.716 200.5,380C 201.448,380.483 202.448,380.649 203.5,380.5C 203.034,382.201 203.034,383.701 203.5,385C 202.643,385.689 201.977,386.522 201.5,387.5C 202.485,389.098 202.651,390.765 202,392.5C 201.577,391.044 200.744,390.544 199.5,391C 200.313,392.314 201.313,393.481 202.5,394.5C 201.624,395.251 200.624,395.751 199.5,396C 200.689,398.524 200.356,401.024 198.5,403.5C 198.167,400.833 197.833,398.167 197.5,395.5C 196.58,370.51 196.246,345.51 196.5,320.5C 207.167,310.167 217.833,299.833 228.5,289.5 Z"/></g>
<g><path style="opacity:1" fill="#fede69" d="M 362.5,274.5 C 362.5,285.833 362.5,297.167 362.5,308.5C 361.542,308.953 360.708,309.619 360,310.5C 359.667,310.167 359.333,309.833 359,309.5C 359,310.833 359,312.167 359,313.5C 357.512,312.804 356.012,313.138 354.5,314.5C 354.709,315.086 355.043,315.586 355.5,316C 353.833,316.333 352.167,316.667 350.5,317C 346.547,319.283 343.38,321.783 341,324.5C 339.334,323.66 339.167,324.16 340.5,326C 338.252,327.917 335.918,329.083 333.5,329.5C 332.571,330.689 332.238,332.022 332.5,333.5C 331.448,333.351 330.448,333.517 329.5,334C 326.141,338.627 322.307,342.794 318,346.5C 317.617,345.944 317.117,345.611 316.5,345.5C 316.803,336.749 316.47,328.082 315.5,319.5C 318.167,317.5 320.5,315.167 322.5,312.5C 334.833,300.5 347.167,288.5 359.5,276.5C 360.5,275.833 361.5,275.167 362.5,274.5 Z"/></g>
<g><path style="opacity:1" fill="#c4a734" d="M 85.5,290.5 C 84.5,292.167 83.1667,293.5 81.5,294.5C 81.8333,292.167 83.1667,290.833 85.5,290.5 Z"/></g>
<g><path style="opacity:1" fill="#b7ddef" d="M 232.5,295.5 C 238.764,303.686 243.764,312.686 247.5,322.5C 246.603,323.598 245.77,323.598 245,322.5C 244.316,323.784 244.483,324.951 245.5,326C 244.199,329.139 242.199,331.805 239.5,334C 242.167,335 242.167,336 239.5,337C 239.957,337.414 240.291,337.914 240.5,338.5C 239.253,340.323 238.586,342.323 238.5,344.5C 237.448,344.351 236.448,344.517 235.5,345C 236.59,347.299 237.423,349.466 238,351.5C 236.736,351.36 235.569,351.36 234.5,351.5C 235.025,352.192 235.692,352.692 236.5,353C 235.308,354.945 235.308,356.945 236.5,359C 235.362,362.118 233.362,364.451 230.5,366C 231.167,366.333 231.833,366.667 232.5,367C 231.167,368.667 229.833,370.333 228.5,372C 230.816,374.152 231.15,376.652 229.5,379.5C 230.167,379.833 230.833,380.167 231.5,380.5C 229.974,383.191 228.64,385.857 227.5,388.5C 228.552,388.351 229.552,388.517 230.5,389C 229.289,390.844 227.956,391.678 226.5,391.5C 228.279,393.193 228.779,395.193 228,397.5C 227.667,397.167 227.333,396.833 227,396.5C 225.823,398.176 224.323,399.509 222.5,400.5C 223.736,402.311 223.736,404.144 222.5,406C 222.759,407.261 223.426,408.261 224.5,409C 223.944,409.383 223.611,409.883 223.5,410.5C 214.167,410.5 204.833,410.5 195.5,410.5C 195.5,380.833 195.5,351.167 195.5,321.5C 195.5,321.167 195.5,320.833 195.5,320.5C 195.833,320.5 196.167,320.5 196.5,320.5C 196.246,345.51 196.58,370.51 197.5,395.5C 197.833,398.167 198.167,400.833 198.5,403.5C 200.356,401.024 200.689,398.524 199.5,396C 200.624,395.751 201.624,395.251 202.5,394.5C 201.313,393.481 200.313,392.314 199.5,391C 200.744,390.544 201.577,391.044 202,392.5C 202.651,390.765 202.485,389.098 201.5,387.5C 201.977,386.522 202.643,385.689 203.5,385C 203.034,383.701 203.034,382.201 203.5,380.5C 202.448,380.649 201.448,380.483 200.5,380C 202.886,379.716 203.552,378.716 202.5,377C 204.125,373.58 206.125,370.413 208.5,367.5C 209.303,364.497 209.303,361.33 208.5,358C 209.132,354.401 210.799,351.401 213.5,349C 213.355,348.228 213.022,347.561 212.5,347C 214.876,343.323 215.876,339.49 215.5,335.5C 218.178,326.614 221.511,318.114 225.5,310C 224.692,309.692 224.025,309.192 223.5,308.5C 225.385,307.803 225.718,306.803 224.5,305.5C 225.711,304.126 226.711,302.626 227.5,301C 227.265,300.127 226.931,299.293 226.5,298.5C 228.704,297.794 230.704,296.794 232.5,295.5 Z"/></g>
<g><path style="opacity:1" fill="#c0a331" d="M 79.5,296.5 C 77.5,299.167 75.1667,301.5 72.5,303.5C 73.8333,300.167 76.1667,297.833 79.5,296.5 Z"/></g>
<g><path style="opacity:1" fill="#2c261e" d="M 239.5,276.5 C 224.5,290.833 209.833,305.5 195.5,320.5C 193.167,321.833 190.833,321.833 188.5,320.5C 174.202,305.701 159.702,291.035 145,276.5C 144.333,274.833 144.333,273.167 145,271.5C 159.833,256.667 174.667,241.833 189.5,227C 191.167,226.333 192.833,226.333 194.5,227C 209.333,241.833 224.167,256.667 239,271.5C 239.494,273.134 239.66,274.801 239.5,276.5 Z"/></g>
<g><path style="opacity:1" fill="#f7c505" d="M 190.5,228.5 C 191.552,228.351 192.552,228.517 193.5,229C 208.542,243.707 223.208,258.707 237.5,274C 223.012,289.821 207.846,304.988 192,319.5C 175.957,304.957 160.79,289.624 146.5,273.5C 161.188,258.479 175.855,243.479 190.5,228.5 Z"/></g>
<g><path style="opacity:1" fill="#3b301e" d="M 176.5,276.5 C 176.631,275.624 176.298,274.957 175.5,274.5C 174.534,276.396 174.201,278.396 174.5,280.5C 173.252,279.666 172.585,278.333 172.5,276.5C 172.966,273.508 173.299,270.508 173.5,267.5C 174.822,267.33 175.989,267.663 177,268.5C 177.332,276.243 178.498,276.243 180.5,268.5C 181.325,267.614 182.325,267.281 183.5,267.5C 183.826,271.884 183.492,276.217 182.5,280.5C 181.682,277.893 181.182,275.226 181,272.5C 180.474,275.272 179.641,277.938 178.5,280.5C 177.295,279.423 176.628,278.09 176.5,276.5 Z"/></g>
<g><path style="opacity:1" fill="#8b7012" d="M 176.5,276.5 C 175.833,277.833 175.167,279.167 174.5,280.5C 174.201,278.396 174.534,276.396 175.5,274.5C 176.298,274.957 176.631,275.624 176.5,276.5 Z"/></g>
<g><path style="opacity:1" fill="#31291e" d="M 216.5,267.5 C 218.451,267.227 219.951,267.893 221,269.5C 222.285,273.172 222.452,276.839 221.5,280.5C 220.614,279.675 220.281,278.675 220.5,277.5C 218.088,277.244 216.421,278.244 215.5,280.5C 215.167,280 214.833,279.5 214.5,279C 215.869,275.283 216.536,271.45 216.5,267.5 Z"/></g>
<g><path style="opacity:1" fill="#2f271f" d="M 196.5,267.5 C 197.5,267.5 198.5,267.5 199.5,267.5C 200.163,270.821 200.83,274.154 201.5,277.5C 200.784,281.422 200.117,281.422 199.5,277.5C 198.167,277.5 196.833,277.5 195.5,277.5C 195.719,278.675 195.386,279.675 194.5,280.5C 193.892,277.495 194.226,274.495 195.5,271.5C 196.161,272.718 196.828,274.051 197.5,275.5C 197.833,274.667 198.167,273.833 198.5,273C 197.622,271.2 196.955,269.367 196.5,267.5 Z"/></g>
<g><path style="opacity:1" fill="#a48411" d="M 218.5,271.5 C 219.782,272.708 219.782,274.042 218.5,275.5C 217.374,274.192 217.374,272.858 218.5,271.5 Z"/></g>
<g><path style="opacity:1" fill="#2c251e" d="M 186.5,267.5 C 193.004,267.138 194.671,269.638 191.5,275C 190.552,275.483 189.552,275.649 188.5,275.5C 188.5,277.167 188.5,278.833 188.5,280.5C 186.57,276.627 185.903,272.294 186.5,267.5 Z"/></g>
<g><path style="opacity:1" fill="#6a561a" d="M 196.5,267.5 C 196.955,269.367 197.622,271.2 198.5,273C 198.167,273.833 197.833,274.667 197.5,275.5C 196.828,274.051 196.161,272.718 195.5,271.5C 195.232,269.901 195.566,268.568 196.5,267.5 Z"/></g>
<g><path style="opacity:1" fill="#ddb207" d="M 188.5,269.5 C 189.586,269.62 190.253,270.287 190.5,271.5C 190.167,272.167 189.833,272.833 189.5,273.5C 188.571,272.311 188.238,270.978 188.5,269.5 Z"/></g>
<g><path style="opacity:1" fill="#231f1f" d="M 165.5,267.5 C 167.288,267.215 168.955,267.548 170.5,268.5C 169.675,269.386 168.675,269.719 167.5,269.5C 167.5,270.5 167.5,271.5 167.5,272.5C 171.5,273.167 171.5,273.833 167.5,274.5C 167.5,275.833 167.5,277.167 167.5,278.5C 168.978,278.238 170.311,278.571 171.5,279.5C 169.604,280.466 167.604,280.799 165.5,280.5C 165.5,276.167 165.5,271.833 165.5,267.5 Z"/></g>
<g><path style="opacity:1" fill="#241f1f" d="M 210.5,267.5 C 211.8,269.223 212.467,271.39 212.5,274C 212.167,276.167 211.833,278.333 211.5,280.5C 210.508,276.217 210.174,271.884 210.5,267.5 Z"/></g>
<g><path style="opacity:1" fill="#8a7012" d="M 186.5,267.5 C 185.903,272.294 186.57,276.627 188.5,280.5C 187.791,281.404 186.791,281.737 185.5,281.5C 185.181,276.637 185.514,271.97 186.5,267.5 Z"/></g>
<g><path style="opacity:1" fill="#30281f" d="M 201.5,267.5 C 203.924,267.192 206.257,267.526 208.5,268.5C 206.669,272.241 206.003,276.241 206.5,280.5C 205.5,280.5 204.5,280.5 203.5,280.5C 203.879,275.93 203.213,271.596 201.5,267.5 Z"/></g>
<g><path style="opacity:1" fill="#d3ebf5" d="M 156.5,290.5 C 163.833,297.167 170.833,304.167 177.5,311.5C 176.381,313.484 176.714,315.317 178.5,317C 178.056,318.762 177.556,318.595 177,316.5C 175.506,319.663 174.006,322.83 172.5,326C 173.357,326.689 174.023,327.522 174.5,328.5C 171.986,330.557 170.653,332.89 170.5,335.5C 170.977,336.478 171.643,337.311 172.5,338C 170.971,339.791 169.304,341.458 167.5,343C 167.546,345.942 167.88,348.942 168.5,352C 167.978,352.95 167.311,353.784 166.5,354.5C 168.784,356.863 168.784,359.363 166.5,362C 168.125,364.137 167.792,365.803 165.5,367C 166.516,367.519 167.182,368.353 167.5,369.5C 166.634,370.851 165.634,371.684 164.5,372C 165.496,380.656 165.829,389.322 165.5,398C 164.167,398.667 163.167,399.667 162.5,401C 163.641,401.741 163.641,402.575 162.5,403.5C 163.441,403.489 164.108,403.989 164.5,405C 164.05,406.285 163.383,407.452 162.5,408.5C 162.846,409.696 163.346,409.696 164,408.5C 164.464,409.094 164.631,409.761 164.5,410.5C 155.5,410.5 146.5,410.5 137.5,410.5C 135.321,407.447 135.655,404.447 138.5,401.5C 137.738,401.089 136.738,400.923 135.5,401C 135.833,400.667 136.167,400.333 136.5,400C 134.993,399.163 134.493,397.996 135,396.5C 136.316,399.028 137.483,399.028 138.5,396.5C 137.149,394.546 136.482,392.379 136.5,390C 137.738,383.761 137.738,377.594 136.5,371.5C 137.853,370.476 138.52,369.143 138.5,367.5C 137.448,367.649 136.448,367.483 135.5,367C 138.217,366.957 138.884,365.957 137.5,364C 139.261,360.167 139.261,356.167 137.5,352C 139.769,349.282 139.769,346.449 137.5,343.5C 138.09,342.201 139.09,341.368 140.5,341C 140.566,337.867 140.566,334.7 140.5,331.5C 141.04,330.252 141.707,329.085 142.5,328C 141.833,327.667 141.167,327.333 140.5,327C 142.549,323.814 144.216,319.98 145.5,315.5C 145.182,314.353 144.516,313.519 143.5,313C 145.441,311.184 146.108,309.184 145.5,307C 146.191,305.933 146.691,304.766 147,303.5C 148.855,301.585 150.355,299.418 151.5,297C 150.5,296.667 149.5,296.333 148.5,296C 150.743,293.577 151.41,290.91 150.5,288C 152.391,288.763 154.391,289.597 156.5,290.5 Z"/></g>
<g><path style="opacity:1" fill="#2a241e" d="M 274.5,262.5 C 275.167,262.5 275.5,262.833 275.5,263.5C 273.205,266.297 270.705,268.964 268,271.5C 267.333,272.5 267.333,273.5 268,274.5C 282.5,289 297,303.5 311.5,318C 315.371,317.332 318.371,315.165 320.5,311.5C 321.492,311.328 322.158,311.662 322.5,312.5C 320.5,315.167 318.167,317.5 315.5,319.5C 314.292,320.234 312.959,320.567 311.5,320.5C 311.5,319.833 311.167,319.5 310.5,319.5C 310.167,319.5 309.833,319.5 309.5,319.5C 295.202,304.701 280.702,290.035 266,275.5C 265.333,273.833 265.333,272.167 266,270.5C 268.703,267.629 271.536,264.962 274.5,262.5 Z"/></g>
<g><path style="opacity:1" fill="#f0d374" d="M 32.5,306.5 C 35.1667,308.5 37.5,310.833 39.5,313.5C 36.1667,312.167 33.8333,309.833 32.5,306.5 Z"/></g>
<g><path style="opacity:1" fill="#c4a631" d="M 72.5,303.5 C 70.8333,305.833 68.8333,307.833 66.5,309.5C 67.5,306.5 69.5,304.5 72.5,303.5 Z"/></g>
<g><path style="opacity:1" fill="#d5c36a" d="M 239.5,276.5 C 239.833,276.5 240.167,276.5 240.5,276.5C 236.5,280.833 232.5,285.167 228.5,289.5C 217.833,299.833 207.167,310.167 196.5,320.5C 196.167,320.5 195.833,320.5 195.5,320.5C 209.833,305.5 224.5,290.833 239.5,276.5 Z"/></g>
<g><path style="opacity:1" fill="#e4f1f7" d="M 115.5,253.5 C 115.833,253.5 116.167,253.5 116.5,253.5C 116.5,305.833 116.5,358.167 116.5,410.5C 113.167,410.5 109.833,410.5 106.5,410.5C 107.057,403.669 107.057,397.002 106.5,390.5C 104.561,388.878 104.228,387.044 105.5,385C 103.043,383.846 103.043,382.512 105.5,381C 104.794,379.09 103.794,377.09 102.5,375C 103.833,373 103.833,371 102.5,369C 103.804,368.196 104.471,367.029 104.5,365.5C 103.266,361.614 103.266,357.781 104.5,354C 103.692,353.692 103.025,353.192 102.5,352.5C 103.167,350.833 103.833,349.167 104.5,347.5C 102.567,344.905 102.567,342.572 104.5,340.5C 104.288,338.165 103.621,335.665 102.5,333C 103.167,332.667 103.833,332.333 104.5,332C 103.446,330.612 103.28,329.112 104,327.5C 104.654,328.696 105.154,328.696 105.5,327.5C 103.536,324.982 102.87,322.316 103.5,319.5C 104.443,315.008 106.11,310.508 108.5,306C 107.256,305.544 106.423,306.044 106,307.5C 104.967,304.783 105.8,302.949 108.5,302C 107.167,301.333 107.167,300.667 108.5,300C 105.151,299.911 104.651,298.744 107,296.5C 107.333,296.833 107.667,297.167 108,297.5C 108.743,295.559 108.576,293.726 107.5,292C 110.033,290.967 111.699,289.133 112.5,286.5C 111.833,285.833 111.167,285.167 110.5,284.5C 111.5,282.5 112.5,280.5 113.5,278.5C 113.916,281.826 114.416,285.826 115,290.5C 115.5,278.171 115.667,265.838 115.5,253.5 Z"/></g>
<g><path style="opacity:1" fill="#cae6f3" d="M 177.5,311.5 C 180.895,314.902 184.562,317.902 188.5,320.5C 188.833,321.167 189.167,321.833 189.5,322.5C 189.5,351.833 189.5,381.167 189.5,410.5C 181.167,410.5 172.833,410.5 164.5,410.5C 164.631,409.761 164.464,409.094 164,408.5C 163.346,409.696 162.846,409.696 162.5,408.5C 163.383,407.452 164.05,406.285 164.5,405C 164.108,403.989 163.441,403.489 162.5,403.5C 163.641,402.575 163.641,401.741 162.5,401C 163.167,399.667 164.167,398.667 165.5,398C 165.829,389.322 165.496,380.656 164.5,372C 165.634,371.684 166.634,370.851 167.5,369.5C 167.182,368.353 166.516,367.519 165.5,367C 167.792,365.803 168.125,364.137 166.5,362C 168.784,359.363 168.784,356.863 166.5,354.5C 167.311,353.784 167.978,352.95 168.5,352C 167.88,348.942 167.546,345.942 167.5,343C 169.304,341.458 170.971,339.791 172.5,338C 171.643,337.311 170.977,336.478 170.5,335.5C 170.653,332.89 171.986,330.557 174.5,328.5C 174.023,327.522 173.357,326.689 172.5,326C 174.006,322.83 175.506,319.663 177,316.5C 177.556,318.595 178.056,318.762 178.5,317C 176.714,315.317 176.381,313.484 177.5,311.5 Z"/></g>
<g><path style="opacity:1" fill="#f4e7be" d="M 66.5,309.5 C 65.6496,311.603 64.6496,313.603 63.5,315.5C 61.0053,316.989 58.6719,318.656 56.5,320.5C 56.5,320.167 56.5,319.833 56.5,319.5C 59.5481,315.785 62.8815,312.452 66.5,309.5 Z"/></g>
<g><path style="opacity:1" fill="#f5fafc" d="M 63.5,315.5 C 65.8418,315.775 65.8418,316.608 63.5,318C 65.7457,320.427 66.4124,323.094 65.5,326C 66.3081,326.308 66.9747,326.808 67.5,327.5C 65.2693,331.791 65.6026,335.957 68.5,340C 68.2409,341.261 67.5742,342.261 66.5,343C 67.3279,343.915 68.3279,344.581 69.5,345C 68.5494,345.718 68.3828,346.551 69,347.5C 69.6543,346.304 70.1543,346.304 70.5,347.5C 69.8333,348.167 69.1667,348.833 68.5,349.5C 69.3898,350.711 69.3898,352.045 68.5,353.5C 69.1083,357.959 70.1083,362.459 71.5,367C 70.8333,367.333 70.1667,367.667 69.5,368C 70.9389,368.991 71.9389,370.324 72.5,372C 71.4464,373.388 71.2797,374.888 72,376.5C 72.763,373.937 73.263,373.937 73.5,376.5C 73.5186,379.073 73.1853,381.74 72.5,384.5C 73.5133,385.165 74.5133,386.332 75.5,388C 75.2608,390.486 74.9275,392.986 74.5,395.5C 75.8848,396.551 76.8848,397.884 77.5,399.5C 76.5153,401.098 76.3486,402.765 77,404.5C 77.3333,403.833 77.6667,403.167 78,402.5C 78.6377,403.609 79.1377,404.775 79.5,406C 78.3381,407.726 78.6715,409.226 80.5,410.5C 71.8333,410.5 63.1667,410.5 54.5,410.5C 54.5,381.167 54.5,351.833 54.5,322.5C 54.8333,321.5 55.5,320.833 56.5,320.5C 58.6719,318.656 61.0053,316.989 63.5,315.5 Z"/></g>
<g><path style="opacity:1" fill="#fedc5c" d="M 362.5,308.5 C 362.5,316.167 362.5,323.833 362.5,331.5C 361.85,331.196 361.183,330.863 360.5,330.5C 355.994,335.164 350.994,339.331 345.5,343C 346.236,345.021 345.403,346.521 343,347.5C 341.334,346.66 341.167,347.16 342.5,349C 341.24,350.113 340.073,350.28 339,349.5C 338.51,350.793 338.343,352.127 338.5,353.5C 337.448,353.351 336.448,353.517 335.5,354C 335.833,354.333 336.167,354.667 336.5,355C 333.473,358.027 330.473,361.027 327.5,364C 328.167,364.333 328.833,364.667 329.5,365C 325.898,365.635 325.232,366.968 327.5,369C 327.112,370.808 327.112,372.475 327.5,374C 329.569,374.324 329.902,375.158 328.5,376.5C 330.138,377.705 330.471,379.038 329.5,380.5C 331.385,381.197 331.718,382.197 330.5,383.5C 331.624,384.914 332.624,386.414 333.5,388C 334.232,390.363 334.232,392.863 333.5,395.5C 327.099,388.762 321.432,381.429 316.5,373.5C 316.5,364.167 316.5,354.833 316.5,345.5C 317.117,345.611 317.617,345.944 318,346.5C 322.307,342.794 326.141,338.627 329.5,334C 330.448,333.517 331.448,333.351 332.5,333.5C 332.238,332.022 332.571,330.689 333.5,329.5C 335.918,329.083 338.252,327.917 340.5,326C 339.167,324.16 339.334,323.66 341,324.5C 343.38,321.783 346.547,319.283 350.5,317C 352.167,316.667 353.833,316.333 355.5,316C 355.043,315.586 354.709,315.086 354.5,314.5C 356.012,313.138 357.512,312.804 359,313.5C 359,312.167 359,310.833 359,309.5C 359.333,309.833 359.667,310.167 360,310.5C 360.708,309.619 361.542,308.953 362.5,308.5 Z"/></g>
<g><path style="opacity:1" fill="#9d7f15" d="M 188.5,320.5 C 190.833,321.833 193.167,321.833 195.5,320.5C 195.5,320.833 195.5,321.167 195.5,321.5C 193.621,322.341 191.621,322.675 189.5,322.5C 189.167,321.833 188.833,321.167 188.5,320.5 Z"/></g>
<g><path style="opacity:1" fill="#fee072" d="M 285.5,297.5 C 293.22,305.224 301.22,312.557 309.5,319.5C 309.833,319.5 310.167,319.5 310.5,319.5C 309.518,333.421 309.185,347.421 309.5,361.5C 298.131,341.452 290.131,320.119 285.5,297.5 Z"/></g>
<g><path style="opacity:1" fill="#615741" d="M 310.5,319.5 C 311.167,319.5 311.5,319.833 311.5,320.5C 311.5,320.833 311.5,321.167 311.5,321.5C 310.502,350.995 310.169,380.662 310.5,410.5C 310.167,410.5 309.833,410.5 309.5,410.5C 309.5,394.167 309.5,377.833 309.5,361.5C 309.185,347.421 309.518,333.421 310.5,319.5 Z"/></g>
<g><path style="opacity:1" fill="#826c24" d="M 56.5,319.5 C 56.5,319.833 56.5,320.167 56.5,320.5C 55.5,320.833 54.8333,321.5 54.5,322.5C 53.5084,322.328 52.8417,322.662 52.5,323.5C 51.1667,323.5 49.8333,323.5 48.5,323.5C 48.5,322.833 48.5,322.167 48.5,321.5C 51.4509,321.713 54.1175,321.046 56.5,319.5 Z"/></g>
<g><path style="opacity:1" fill="#525051" d="M 52.5,323.5 C 52.8417,322.662 53.5084,322.328 54.5,322.5C 54.5,351.833 54.5,381.167 54.5,410.5C 54.1667,410.5 53.8333,410.5 53.5,410.5C 53.8314,381.329 53.498,352.329 52.5,323.5 Z"/></g>
<g><path style="opacity:1" fill="#221e1f" d="M 311.5,321.5 C 312.833,321.5 314.167,321.5 315.5,321.5C 315.5,338.833 315.5,356.167 315.5,373.5C 315.5,385.833 315.5,398.167 315.5,410.5C 313.833,410.5 312.167,410.5 310.5,410.5C 310.169,380.662 310.502,350.995 311.5,321.5 Z"/></g>
<g><path style="opacity:1" fill="#221e1f" d="M 195.5,321.5 C 195.5,351.167 195.5,380.833 195.5,410.5C 193.5,410.5 191.5,410.5 189.5,410.5C 189.5,381.167 189.5,351.833 189.5,322.5C 191.621,322.675 193.621,322.341 195.5,321.5 Z"/></g>
<g><path style="opacity:1" fill="#221e1f" d="M 48.5,323.5 C 49.8333,323.5 51.1667,323.5 52.5,323.5C 53.498,352.329 53.8314,381.329 53.5,410.5C 51.8333,410.5 50.1667,410.5 48.5,410.5C 48.5,381.5 48.5,352.5 48.5,323.5 Z"/></g>
<g><path style="opacity:1" fill="#c1aa51" d="M 315.5,319.5 C 316.47,328.082 316.803,336.749 316.5,345.5C 316.5,354.833 316.5,364.167 316.5,373.5C 316.167,373.5 315.833,373.5 315.5,373.5C 315.5,356.167 315.5,338.833 315.5,321.5C 314.167,321.5 312.833,321.5 311.5,321.5C 311.5,321.167 311.5,320.833 311.5,320.5C 312.959,320.567 314.292,320.234 315.5,319.5 Z"/></g>
<g><path style="opacity:1" fill="#aad8ed" d="M 247.5,322.5 C 247.833,322.5 248.167,322.5 248.5,322.5C 248.5,351.833 248.5,381.167 248.5,410.5C 240.167,410.5 231.833,410.5 223.5,410.5C 223.611,409.883 223.944,409.383 224.5,409C 223.426,408.261 222.759,407.261 222.5,406C 223.736,404.144 223.736,402.311 222.5,400.5C 224.323,399.509 225.823,398.176 227,396.5C 227.333,396.833 227.667,397.167 228,397.5C 228.779,395.193 228.279,393.193 226.5,391.5C 227.956,391.678 229.289,390.844 230.5,389C 229.552,388.517 228.552,388.351 227.5,388.5C 228.64,385.857 229.974,383.191 231.5,380.5C 230.833,380.167 230.167,379.833 229.5,379.5C 231.15,376.652 230.816,374.152 228.5,372C 229.833,370.333 231.167,368.667 232.5,367C 231.833,366.667 231.167,366.333 230.5,366C 233.362,364.451 235.362,362.118 236.5,359C 235.308,356.945 235.308,354.945 236.5,353C 235.692,352.692 235.025,352.192 234.5,351.5C 235.569,351.36 236.736,351.36 238,351.5C 237.423,349.466 236.59,347.299 235.5,345C 236.448,344.517 237.448,344.351 238.5,344.5C 238.586,342.323 239.253,340.323 240.5,338.5C 240.291,337.914 239.957,337.414 239.5,337C 242.167,336 242.167,335 239.5,334C 242.199,331.805 244.199,329.139 245.5,326C 244.483,324.951 244.316,323.784 245,322.5C 245.77,323.598 246.603,323.598 247.5,322.5 Z"/></g>
<g><path style="opacity:1" fill="#ffda50" d="M 362.5,331.5 C 362.5,357.833 362.5,384.167 362.5,410.5C 357.167,410.5 351.833,410.5 346.5,410.5C 341.793,405.795 337.46,400.795 333.5,395.5C 334.232,392.863 334.232,390.363 333.5,388C 332.624,386.414 331.624,384.914 330.5,383.5C 331.718,382.197 331.385,381.197 329.5,380.5C 330.471,379.038 330.138,377.705 328.5,376.5C 329.902,375.158 329.569,374.324 327.5,374C 327.112,372.475 327.112,370.808 327.5,369C 325.232,366.968 325.898,365.635 329.5,365C 328.833,364.667 328.167,364.333 327.5,364C 330.473,361.027 333.473,358.027 336.5,355C 336.167,354.667 335.833,354.333 335.5,354C 336.448,353.517 337.448,353.351 338.5,353.5C 338.343,352.127 338.51,350.793 339,349.5C 340.073,350.28 341.24,350.113 342.5,349C 341.167,347.16 341.334,346.66 343,347.5C 345.403,346.521 346.236,345.021 345.5,343C 350.994,339.331 355.994,335.164 360.5,330.5C 361.183,330.863 361.85,331.196 362.5,331.5 Z"/></g>
<g><path style="opacity:1" fill="#9ec9dc" d="M 255.5,225.5 C 255.333,264.835 255.5,304.168 256,343.5C 262.364,365.415 264.531,387.749 262.5,410.5C 259.833,410.5 257.167,410.5 254.5,410.5C 254.5,349.5 254.5,288.5 254.5,227.5C 254.328,226.508 254.662,225.842 255.5,225.5 Z"/></g>
<g><path style="opacity:1" fill="#fbfaf8" d="M 315.5,373.5 C 315.833,373.5 316.167,373.5 316.5,373.5C 321.432,381.429 327.099,388.762 333.5,395.5C 337.46,400.795 341.793,405.795 346.5,410.5C 336.167,410.5 325.833,410.5 315.5,410.5C 315.5,398.167 315.5,385.833 315.5,373.5 Z"/></g>
</svg>
