<?xml version="1.0" encoding="UTF-8"?>
<!DOCTYPE svg PUBLIC "-//W3C//DTD SVG 1.1//EN" "http://www.w3.org/Graphics/SVG/1.1/DTD/svg11.dtd">
<svg xmlns="http://www.w3.org/2000/svg" version="1.1" width="24px" height="24px" style="shape-rendering:geometricPrecision; text-rendering:geometricPrecision; image-rendering:optimizeQuality; fill-rule:evenodd; clip-rule:evenodd" xmlns:xlink="http://www.w3.org/1999/xlink">
<g><path style="opacity:0.947" fill="#fefffe" d="M 1.5,1.5 C 7.84209,1.33379 14.1754,1.50046 20.5,2C 21.6349,6.74766 21.8015,11.581 21,16.5C 16.2512,17.3052 11.4179,17.8052 6.5,18C 5.31471,19.353 3.98138,20.5197 2.5,21.5C 1.50331,14.8665 1.16998,8.19979 1.5,1.5 Z M 4.5,3.5 C 9.5,3.5 14.5,3.5 19.5,3.5C 19.7935,7.43669 19.4601,11.27 18.5,15C 13.5821,15.1948 8.74878,15.6948 4,16.5C 3.23158,12.0804 3.39825,7.74709 4.5,3.5 Z"/></g>
<g><path style="opacity:0.896" fill="#fefffe" d="M 10.5,5.5 C 11.5862,5.61998 12.2528,6.28665 12.5,7.5C 12.1667,8.16667 11.8333,8.83333 11.5,9.5C 10.5713,8.31116 10.238,6.97782 10.5,5.5 Z"/></g>
<g><path style="opacity:0.796" fill="#fefffe" d="M 10.5,11.5 C 12.337,11.6395 12.6704,12.3061 11.5,13.5C 10.7025,13.0431 10.3691,12.3764 10.5,11.5 Z"/></g>
</svg>
