<?xml version="1.0" encoding="UTF-8"?>
<!DOCTYPE svg PUBLIC "-//W3C//DTD SVG 1.1//EN" "http://www.w3.org/Graphics/SVG/1.1/DTD/svg11.dtd">
<svg xmlns="http://www.w3.org/2000/svg" version="1.1" width="512px" height="512px" style="shape-rendering:geometricPrecision; text-rendering:geometricPrecision; image-rendering:optimizeQuality; fill-rule:evenodd; clip-rule:evenodd" xmlns:xlink="http://www.w3.org/1999/xlink">
<g><path style="opacity:0.988" fill="#fefffe" d="M 232.5,95.5 C 316.236,89.5634 386.403,117.23 443,178.5C 460.476,197.778 472.476,220.112 479,245.5C 480.256,256.396 479.256,267.062 476,277.5C 469.476,295.561 460.143,311.894 448,326.5C 391.23,391.887 319.397,421.387 232.5,415C 152.57,407.31 90.7368,370.144 47,303.5C 40.2262,291.508 35.2262,278.841 32,265.5C 30.0777,250.78 32.411,236.78 39,223.5C 65.3711,172.796 104.871,136.296 157.5,114C 181.788,104.448 206.788,98.281 232.5,95.5 Z M 250.5,154.5 C 295.675,154.985 328.175,175.318 348,215.5C 363.577,256.711 356.744,293.711 327.5,326.5C 294.641,356.589 257.307,363.756 215.5,348C 177.052,329.34 156.719,298.507 154.5,255.5C 158.165,204.348 184.498,171.515 233.5,157C 239.317,156.191 244.983,155.358 250.5,154.5 Z"/></g>
<g><path style="opacity:0.982" fill="#fefffe" d="M 247.5,197.5 C 275.846,195.584 296.346,207.251 309,232.5C 319.794,266.465 309.627,291.965 278.5,309C 244.535,319.794 219.035,309.627 202,278.5C 191.796,247.777 199.963,223.277 226.5,205C 233.295,201.571 240.295,199.071 247.5,197.5 Z"/></g>
</svg>
