<?xml version="1.0" encoding="UTF-8"?>
<!DOCTYPE svg PUBLIC "-//W3C//DTD SVG 1.1//EN" "http://www.w3.org/Graphics/SVG/1.1/DTD/svg11.dtd">
<svg xmlns="http://www.w3.org/2000/svg" version="1.1" width="24px" height="24px" style="shape-rendering:geometricPrecision; text-rendering:geometricPrecision; image-rendering:optimizeQuality; fill-rule:evenodd; clip-rule:evenodd" xmlns:xlink="http://www.w3.org/1999/xlink">
<g><path style="opacity:0.722" fill="#fefffe" d="M 8.5,1.5 C 16.5769,0.810228 19.2436,4.31023 16.5,12C 17.6512,13.8231 18.8179,15.6564 20,17.5C 20.7805,18.9437 20.6139,20.277 19.5,21.5C 14.18,10.8422 8.84666,10.8422 3.5,21.5C 2.36912,19.9255 2.20245,18.2588 3,16.5C 6.37782,13.1677 7.37782,9.16772 6,4.5C 6.69794,3.30943 7.53128,2.30943 8.5,1.5 Z M 9.5,4.5 C 14.1585,4.01463 15.4919,5.84796 13.5,10C 8.72816,10.8104 7.39483,8.97711 9.5,4.5 Z"/></g>
</svg>
