<?xml version="1.0" encoding="UTF-8"?>
<!DOCTYPE svg PUBLIC "-//W3C//DTD SVG 1.1//EN" "http://www.w3.org/Graphics/SVG/1.1/DTD/svg11.dtd">
<svg xmlns="http://www.w3.org/2000/svg" version="1.1" width="24px" height="24px" style="shape-rendering:geometricPrecision; text-rendering:geometricPrecision; image-rendering:optimizeQuality; fill-rule:evenodd; clip-rule:evenodd" xmlns:xlink="http://www.w3.org/1999/xlink">
<g><path style="opacity:0.899" fill="#fefffe" d="M 1.5,4.5 C 6.17853,4.33418 10.8452,4.50085 15.5,5C 16.1258,5.75044 16.6258,6.58377 17,7.5C 18.3374,6.23508 19.8374,5.73508 21.5,6C 22.7948,9.7864 22.7948,13.6197 21.5,17.5C 19.7419,16.8721 18.2419,15.8721 17,14.5C 16.6905,15.7659 16.1905,16.9326 15.5,18C 10.8333,18.6667 6.16667,18.6667 1.5,18C 0.194348,13.5006 0.194348,9.00059 1.5,4.5 Z M 3.5,6.5 C 6.8499,6.33499 10.1832,6.50166 13.5,7C 14.6105,9.73722 14.7772,12.5706 14,15.5C 4.11946,19.3083 0.61946,16.3083 3.5,6.5 Z M 19.5,8.5 C 20.7879,10.0348 20.7879,11.7015 19.5,13.5C 18.354,12.8551 17.354,12.0217 16.5,11C 17.9423,10.6232 18.9423,9.78991 19.5,8.5 Z"/></g>
</svg>
